<?xml version="1.0" encoding="utf-8" standalone="no"?>
<!DOCTYPE svg PUBLIC "-//W3C//DTD SVG 1.1//EN"
  "http://www.w3.org/Graphics/SVG/1.1/DTD/svg11.dtd">
<svg xmlns:xlink="http://www.w3.org/1999/xlink" width="1008pt" height="396pt" viewBox="0 0 1008 396" xmlns="http://www.w3.org/2000/svg" version="1.1">
 <metadata>
  <rdf:RDF xmlns:dc="http://purl.org/dc/elements/1.1/" xmlns:cc="http://creativecommons.org/ns#" xmlns:rdf="http://www.w3.org/1999/02/22-rdf-syntax-ns#">
   <cc:Work>
    <dc:type rdf:resource="http://purl.org/dc/dcmitype/StillImage"/>
    <dc:date>2026-06-21T22:15:46.944410</dc:date>
    <dc:format>image/svg+xml</dc:format>
    <dc:creator>
     <cc:Agent>
      <dc:title>Matplotlib v3.11.0, https://matplotlib.org/</dc:title>
     </cc:Agent>
    </dc:creator>
   </cc:Work>
  </rdf:RDF>
 </metadata>
 <defs>
  <style type="text/css">*{stroke-linejoin: round; stroke-linecap: butt}</style>
 </defs>
 <g id="figure_1">
  <g id="patch_1">
   <path d="M 0 396
L 1008 396
L 1008 0
L 0 0
z
" style="fill: #ffffff"/>
  </g>
  <g id="axes_1">
   <g id="patch_2">
    <path d="M 42.140273 358.930469
L 514.270137 358.930469
L 514.270137 48.680684
L 42.140273 48.680684
z
" style="fill: #ffffff"/>
   </g>
   <g id="matplotlib.axis_1">
    <g id="xtick_1">
     <g id="line2d_1">
      <path d="M 63.600722 358.930469
L 63.600722 48.680684
" clip-path="url(#p0a91b32804)" style="fill: none; stroke: #cccccc; stroke-width: 0.8; stroke-linecap: round"/>
     </g>
     <g id="line2d_2"/>
     <g id="text_1">
      <!-- 20 -->
      <g style="fill: #262626" transform="translate(58.039784 369.710742) scale(0.1 -0.1)">
       <defs>
        <path id="LiberationSans-15" d="M 322 0
L 322 397
Q 481 763 711 1042
Q 941 1322 1194 1548
Q 1447 1775 1695 1969
Q 1944 2163 2144 2356
Q 2344 2550 2467 2762
Q 2591 2975 2591 3244
Q 2591 3606 2378 3806
Q 2166 4006 1788 4006
Q 1428 4006 1195 3811
Q 963 3616 922 3263
L 347 3316
Q 409 3844 795 4156
Q 1181 4469 1788 4469
Q 2453 4469 2811 4155
Q 3169 3841 3169 3263
Q 3169 3006 3051 2753
Q 2934 2500 2703 2247
Q 2472 1994 1819 1463
Q 1459 1169 1246 933
Q 1034 697 941 478
L 3238 478
L 3238 0
L 322 0
z
" transform="scale(0.015625)"/>
        <path id="LiberationSans-13" d="M 3309 2203
Q 3309 1100 2920 518
Q 2531 -63 1772 -63
Q 1013 -63 631 515
Q 250 1094 250 2203
Q 250 3338 620 3903
Q 991 4469 1791 4469
Q 2569 4469 2939 3897
Q 3309 3325 3309 2203
z
M 2738 2203
Q 2738 3156 2517 3584
Q 2297 4013 1791 4013
Q 1272 4013 1045 3591
Q 819 3169 819 2203
Q 819 1266 1048 831
Q 1278 397 1778 397
Q 2275 397 2506 840
Q 2738 1284 2738 2203
z
" transform="scale(0.015625)"/>
       </defs>
       <use xlink:href="#LiberationSans-15"/>
       <use xlink:href="#LiberationSans-13" transform="translate(55.609375 0)"/>
      </g>
     </g>
    </g>
    <g id="xtick_2">
     <g id="line2d_3">
      <path d="M 117.251843 358.930469
L 117.251843 48.680684
" clip-path="url(#p0a91b32804)" style="fill: none; stroke: #cccccc; stroke-width: 0.8; stroke-linecap: round"/>
     </g>
     <g id="line2d_4"/>
     <g id="text_2">
      <!-- 30 -->
      <g style="fill: #262626" transform="translate(111.690905 369.710742) scale(0.1 -0.1)">
       <defs>
        <path id="LiberationSans-16" d="M 3278 1216
Q 3278 606 2890 271
Q 2503 -63 1784 -63
Q 1116 -63 717 239
Q 319 541 244 1131
L 825 1184
Q 938 403 1784 403
Q 2209 403 2451 612
Q 2694 822 2694 1234
Q 2694 1594 2417 1795
Q 2141 1997 1619 1997
L 1300 1997
L 1300 2484
L 1606 2484
Q 2069 2484 2323 2686
Q 2578 2888 2578 3244
Q 2578 3597 2370 3801
Q 2163 4006 1753 4006
Q 1381 4006 1151 3815
Q 922 3625 884 3278
L 319 3322
Q 381 3863 767 4166
Q 1153 4469 1759 4469
Q 2422 4469 2789 4161
Q 3156 3853 3156 3303
Q 3156 2881 2920 2617
Q 2684 2353 2234 2259
L 2234 2247
Q 2728 2194 3003 1916
Q 3278 1638 3278 1216
z
" transform="scale(0.015625)"/>
       </defs>
       <use xlink:href="#LiberationSans-16"/>
       <use xlink:href="#LiberationSans-13" transform="translate(55.609375 0)"/>
      </g>
     </g>
    </g>
    <g id="xtick_3">
     <g id="line2d_5">
      <path d="M 170.902963 358.930469
L 170.902963 48.680684
" clip-path="url(#p0a91b32804)" style="fill: none; stroke: #cccccc; stroke-width: 0.8; stroke-linecap: round"/>
     </g>
     <g id="line2d_6"/>
     <g id="text_3">
      <!-- 40 -->
      <g style="fill: #262626" transform="translate(165.342026 369.710742) scale(0.1 -0.1)">
       <defs>
        <path id="LiberationSans-17" d="M 2753 997
L 2753 0
L 2222 0
L 2222 997
L 147 997
L 147 1434
L 2163 4403
L 2753 4403
L 2753 1441
L 3372 1441
L 3372 997
L 2753 997
z
M 2222 3769
Q 2216 3750 2134 3603
Q 2053 3456 2013 3397
L 884 1734
L 716 1503
L 666 1441
L 2222 1441
L 2222 3769
z
" transform="scale(0.015625)"/>
       </defs>
       <use xlink:href="#LiberationSans-17"/>
       <use xlink:href="#LiberationSans-13" transform="translate(55.609375 0)"/>
      </g>
     </g>
    </g>
    <g id="xtick_4">
     <g id="line2d_7">
      <path d="M 224.554084 358.930469
L 224.554084 48.680684
" clip-path="url(#p0a91b32804)" style="fill: none; stroke: #cccccc; stroke-width: 0.8; stroke-linecap: round"/>
     </g>
     <g id="line2d_8"/>
     <g id="text_4">
      <!-- 50 -->
      <g style="fill: #262626" transform="translate(218.993147 369.710742) scale(0.1 -0.1)">
       <defs>
        <path id="LiberationSans-18" d="M 3291 1434
Q 3291 738 2877 337
Q 2463 -63 1728 -63
Q 1113 -63 734 206
Q 356 475 256 984
L 825 1050
Q 1003 397 1741 397
Q 2194 397 2450 670
Q 2706 944 2706 1422
Q 2706 1838 2448 2094
Q 2191 2350 1753 2350
Q 1525 2350 1328 2278
Q 1131 2206 934 2034
L 384 2034
L 531 4403
L 3034 4403
L 3034 3925
L 1044 3925
L 959 2528
Q 1325 2809 1869 2809
Q 2519 2809 2905 2428
Q 3291 2047 3291 1434
z
" transform="scale(0.015625)"/>
       </defs>
       <use xlink:href="#LiberationSans-18"/>
       <use xlink:href="#LiberationSans-13" transform="translate(55.609375 0)"/>
      </g>
     </g>
    </g>
    <g id="xtick_5">
     <g id="line2d_9">
      <path d="M 278.205205 358.930469
L 278.205205 48.680684
" clip-path="url(#p0a91b32804)" style="fill: none; stroke: #cccccc; stroke-width: 0.8; stroke-linecap: round"/>
     </g>
     <g id="line2d_10"/>
     <g id="text_5">
      <!-- 60 -->
      <g style="fill: #262626" transform="translate(272.644268 369.710742) scale(0.1 -0.1)">
       <defs>
        <path id="LiberationSans-19" d="M 3278 1441
Q 3278 744 2900 340
Q 2522 -63 1856 -63
Q 1113 -63 719 490
Q 325 1044 325 2100
Q 325 3244 734 3856
Q 1144 4469 1900 4469
Q 2897 4469 3156 3572
L 2619 3475
Q 2453 4013 1894 4013
Q 1413 4013 1148 3564
Q 884 3116 884 2266
Q 1038 2550 1316 2698
Q 1594 2847 1953 2847
Q 2563 2847 2920 2465
Q 3278 2084 3278 1441
z
M 2706 1416
Q 2706 1894 2472 2153
Q 2238 2413 1819 2413
Q 1425 2413 1183 2183
Q 941 1953 941 1550
Q 941 1041 1192 716
Q 1444 391 1838 391
Q 2244 391 2475 664
Q 2706 938 2706 1416
z
" transform="scale(0.015625)"/>
       </defs>
       <use xlink:href="#LiberationSans-19"/>
       <use xlink:href="#LiberationSans-13" transform="translate(55.609375 0)"/>
      </g>
     </g>
    </g>
    <g id="xtick_6">
     <g id="line2d_11">
      <path d="M 331.856326 358.930469
L 331.856326 48.680684
" clip-path="url(#p0a91b32804)" style="fill: none; stroke: #cccccc; stroke-width: 0.8; stroke-linecap: round"/>
     </g>
     <g id="line2d_12"/>
     <g id="text_6">
      <!-- 70 -->
      <g style="fill: #262626" transform="translate(326.295388 369.710742) scale(0.1 -0.1)">
       <defs>
        <path id="LiberationSans-1a" d="M 3238 3947
Q 2563 2916 2284 2331
Q 2006 1747 1867 1178
Q 1728 609 1728 0
L 1141 0
Q 1141 844 1498 1776
Q 1856 2709 2694 3925
L 328 3925
L 328 4403
L 3238 4403
L 3238 3947
z
" transform="scale(0.015625)"/>
       </defs>
       <use xlink:href="#LiberationSans-1a"/>
       <use xlink:href="#LiberationSans-13" transform="translate(55.609375 0)"/>
      </g>
     </g>
    </g>
    <g id="xtick_7">
     <g id="line2d_13">
      <path d="M 385.507447 358.930469
L 385.507447 48.680684
" clip-path="url(#p0a91b32804)" style="fill: none; stroke: #cccccc; stroke-width: 0.8; stroke-linecap: round"/>
     </g>
     <g id="line2d_14"/>
     <g id="text_7">
      <!-- 80 -->
      <g style="fill: #262626" transform="translate(379.946509 369.710742) scale(0.1 -0.1)">
       <defs>
        <path id="LiberationSans-1b" d="M 3281 1228
Q 3281 619 2893 278
Q 2506 -63 1781 -63
Q 1075 -63 676 271
Q 278 606 278 1222
Q 278 1653 525 1947
Q 772 2241 1156 2303
L 1156 2316
Q 797 2400 589 2681
Q 381 2963 381 3341
Q 381 3844 757 4156
Q 1134 4469 1769 4469
Q 2419 4469 2795 4162
Q 3172 3856 3172 3334
Q 3172 2956 2962 2675
Q 2753 2394 2391 2322
L 2391 2309
Q 2813 2241 3047 1952
Q 3281 1663 3281 1228
z
M 2588 3303
Q 2588 4050 1769 4050
Q 1372 4050 1164 3862
Q 956 3675 956 3303
Q 956 2925 1170 2726
Q 1384 2528 1775 2528
Q 2172 2528 2380 2711
Q 2588 2894 2588 3303
z
M 2697 1281
Q 2697 1691 2453 1898
Q 2209 2106 1769 2106
Q 1341 2106 1100 1882
Q 859 1659 859 1269
Q 859 359 1788 359
Q 2247 359 2472 579
Q 2697 800 2697 1281
z
" transform="scale(0.015625)"/>
       </defs>
       <use xlink:href="#LiberationSans-1b"/>
       <use xlink:href="#LiberationSans-13" transform="translate(55.609375 0)"/>
      </g>
     </g>
    </g>
    <g id="xtick_8">
     <g id="line2d_15">
      <path d="M 439.158568 358.930469
L 439.158568 48.680684
" clip-path="url(#p0a91b32804)" style="fill: none; stroke: #cccccc; stroke-width: 0.8; stroke-linecap: round"/>
     </g>
     <g id="line2d_16"/>
     <g id="text_8">
      <!-- 90 -->
      <g style="fill: #262626" transform="translate(433.59763 369.710742) scale(0.1 -0.1)">
       <defs>
        <path id="LiberationSans-1c" d="M 3256 2291
Q 3256 1156 2842 546
Q 2428 -63 1663 -63
Q 1147 -63 836 154
Q 525 372 391 856
L 928 941
Q 1097 391 1672 391
Q 2156 391 2422 841
Q 2688 1291 2700 2125
Q 2575 1844 2272 1673
Q 1969 1503 1606 1503
Q 1013 1503 656 1909
Q 300 2316 300 2988
Q 300 3678 687 4073
Q 1075 4469 1766 4469
Q 2500 4469 2878 3925
Q 3256 3381 3256 2291
z
M 2644 2834
Q 2644 3366 2400 3689
Q 2156 4013 1747 4013
Q 1341 4013 1106 3736
Q 872 3459 872 2988
Q 872 2506 1106 2226
Q 1341 1947 1741 1947
Q 1984 1947 2193 2058
Q 2403 2169 2523 2372
Q 2644 2575 2644 2834
z
" transform="scale(0.015625)"/>
       </defs>
       <use xlink:href="#LiberationSans-1c"/>
       <use xlink:href="#LiberationSans-13" transform="translate(55.609375 0)"/>
      </g>
     </g>
    </g>
    <g id="xtick_9">
     <g id="line2d_17">
      <path d="M 492.809688 358.930469
L 492.809688 48.680684
" clip-path="url(#p0a91b32804)" style="fill: none; stroke: #cccccc; stroke-width: 0.8; stroke-linecap: round"/>
     </g>
     <g id="line2d_18"/>
     <g id="text_9">
      <!-- 100 -->
      <g style="fill: #262626" transform="translate(484.468282 369.710742) scale(0.1 -0.1)">
       <defs>
        <path id="LiberationSans-14" d="M 488 0
L 488 478
L 1609 478
L 1609 3866
L 616 3156
L 616 3688
L 1656 4403
L 2175 4403
L 2175 478
L 3247 478
L 3247 0
L 488 0
z
" transform="scale(0.015625)"/>
       </defs>
       <use xlink:href="#LiberationSans-14"/>
       <use xlink:href="#LiberationSans-13" transform="translate(55.609375 0)"/>
       <use xlink:href="#LiberationSans-13" transform="translate(111.21875 0)"/>
      </g>
     </g>
    </g>
    <g id="text_10">
     <!-- Number of YAML files -->
     <g style="fill: #262626" transform="translate(230.226299 383.095508) scale(0.1 -0.1)">
      <defs>
       <path id="LiberationSans-31" d="M 3381 0
L 1025 3750
L 1041 3447
L 1056 2925
L 1056 0
L 525 0
L 525 4403
L 1219 4403
L 3600 628
Q 3563 1241 3563 1516
L 3563 4403
L 4100 4403
L 4100 0
L 3381 0
z
" transform="scale(0.015625)"/>
       <path id="LiberationSans-58" d="M 981 3381
L 981 1238
Q 981 903 1047 718
Q 1113 534 1256 453
Q 1400 372 1678 372
Q 2084 372 2318 650
Q 2553 928 2553 1422
L 2553 3381
L 3116 3381
L 3116 722
Q 3116 131 3134 0
L 2603 0
Q 2600 16 2597 84
Q 2594 153 2589 242
Q 2584 331 2578 578
L 2569 578
Q 2375 228 2120 82
Q 1866 -63 1488 -63
Q 931 -63 673 214
Q 416 491 416 1128
L 416 3381
L 981 3381
z
" transform="scale(0.015625)"/>
       <path id="LiberationSans-50" d="M 2400 0
L 2400 2144
Q 2400 2634 2265 2821
Q 2131 3009 1781 3009
Q 1422 3009 1212 2734
Q 1003 2459 1003 1959
L 1003 0
L 444 0
L 444 2659
Q 444 3250 425 3381
L 956 3381
Q 959 3366 962 3297
Q 966 3228 970 3139
Q 975 3050 981 2803
L 991 2803
Q 1172 3163 1406 3303
Q 1641 3444 1978 3444
Q 2363 3444 2586 3291
Q 2809 3138 2897 2803
L 2906 2803
Q 3081 3144 3329 3294
Q 3578 3444 3931 3444
Q 4444 3444 4676 3166
Q 4909 2888 4909 2253
L 4909 0
L 4353 0
L 4353 2144
Q 4353 2634 4218 2821
Q 4084 3009 3734 3009
Q 3366 3009 3161 2736
Q 2956 2463 2956 1959
L 2956 0
L 2400 0
z
" transform="scale(0.015625)"/>
       <path id="LiberationSans-45" d="M 3291 1706
Q 3291 -63 2047 -63
Q 1663 -63 1408 76
Q 1153 216 994 525
L 988 525
Q 988 428 975 229
Q 963 31 956 0
L 413 0
Q 431 169 431 697
L 431 4638
L 994 4638
L 994 3316
Q 994 3113 981 2838
L 994 2838
Q 1150 3163 1408 3303
Q 1666 3444 2047 3444
Q 2688 3444 2989 3012
Q 3291 2581 3291 1706
z
M 2700 1688
Q 2700 2397 2512 2703
Q 2325 3009 1903 3009
Q 1428 3009 1211 2684
Q 994 2359 994 1653
Q 994 988 1206 670
Q 1419 353 1897 353
Q 2322 353 2511 667
Q 2700 981 2700 1688
z
" transform="scale(0.015625)"/>
       <path id="LiberationSans-48" d="M 863 1572
Q 863 991 1103 675
Q 1344 359 1806 359
Q 2172 359 2392 506
Q 2613 653 2691 878
L 3184 738
Q 2881 -63 1806 -63
Q 1056 -63 664 384
Q 272 831 272 1713
Q 272 2550 664 2997
Q 1056 3444 1784 3444
Q 3275 3444 3275 1647
L 3275 1572
L 863 1572
z
M 2694 2003
Q 2647 2538 2422 2783
Q 2197 3028 1775 3028
Q 1366 3028 1127 2754
Q 888 2481 869 2003
L 2694 2003
z
" transform="scale(0.015625)"/>
       <path id="LiberationSans-55" d="M 444 0
L 444 2594
Q 444 2950 425 3381
L 956 3381
Q 981 2806 981 2691
L 994 2691
Q 1128 3125 1303 3284
Q 1478 3444 1797 3444
Q 1909 3444 2025 3413
L 2025 2897
Q 1913 2928 1725 2928
Q 1375 2928 1190 2626
Q 1006 2325 1006 1763
L 1006 0
L 444 0
z
" transform="scale(0.015625)"/>
       <path id="LiberationSans-3" transform="scale(0.015625)"/>
       <path id="LiberationSans-52" d="M 3291 1694
Q 3291 806 2900 371
Q 2509 -63 1766 -63
Q 1025 -63 647 389
Q 269 841 269 1694
Q 269 3444 1784 3444
Q 2559 3444 2925 3017
Q 3291 2591 3291 1694
z
M 2700 1694
Q 2700 2394 2492 2711
Q 2284 3028 1794 3028
Q 1300 3028 1079 2704
Q 859 2381 859 1694
Q 859 1025 1076 689
Q 1294 353 1759 353
Q 2266 353 2483 678
Q 2700 1003 2700 1694
z
" transform="scale(0.015625)"/>
       <path id="LiberationSans-49" d="M 1128 2972
L 1128 0
L 566 0
L 566 2972
L 91 2972
L 91 3381
L 566 3381
L 566 3763
Q 566 4225 769 4428
Q 972 4631 1391 4631
Q 1625 4631 1788 4594
L 1788 4166
Q 1647 4191 1538 4191
Q 1322 4191 1225 4081
Q 1128 3972 1128 3684
L 1128 3381
L 1788 3381
L 1788 2972
L 1128 2972
z
" transform="scale(0.015625)"/>
       <path id="LiberationSans-3c" d="M 2428 1825
L 2428 0
L 1834 0
L 1834 1825
L 141 4403
L 797 4403
L 2138 2306
L 3472 4403
L 4128 4403
L 2428 1825
z
" transform="scale(0.015625)"/>
       <path id="LiberationSans-24" d="M 3647 0
L 3144 1288
L 1138 1288
L 631 0
L 13 0
L 1809 4403
L 2488 4403
L 4256 0
L 3647 0
z
M 2141 3953
L 2113 3866
Q 2034 3606 1881 3200
L 1319 1753
L 2966 1753
L 2400 3206
Q 2313 3422 2225 3694
L 2141 3953
z
" transform="scale(0.015625)"/>
       <path id="LiberationSans-30" d="M 4269 0
L 4269 2938
Q 4269 3425 4297 3875
Q 4144 3316 4022 3000
L 2884 0
L 2466 0
L 1313 3000
L 1138 3531
L 1034 3875
L 1044 3528
L 1056 2938
L 1056 0
L 525 0
L 525 4403
L 1309 4403
L 2481 1350
Q 2544 1166 2601 955
Q 2659 744 2678 650
Q 2703 775 2783 1029
Q 2863 1284 2891 1350
L 4041 4403
L 4806 4403
L 4806 0
L 4269 0
z
" transform="scale(0.015625)"/>
       <path id="LiberationSans-2f" d="M 525 0
L 525 4403
L 1122 4403
L 1122 488
L 3347 488
L 3347 0
L 525 0
z
" transform="scale(0.015625)"/>
       <path id="LiberationSans-4c" d="M 428 4100
L 428 4638
L 991 4638
L 991 4100
L 428 4100
z
M 428 0
L 428 3381
L 991 3381
L 991 0
L 428 0
z
" transform="scale(0.015625)"/>
       <path id="LiberationSans-4f" d="M 431 0
L 431 4638
L 994 4638
L 994 0
L 431 0
z
" transform="scale(0.015625)"/>
       <path id="LiberationSans-56" d="M 2969 934
Q 2969 456 2608 196
Q 2247 -63 1597 -63
Q 966 -63 623 145
Q 281 353 178 794
L 675 891
Q 747 619 972 492
Q 1197 366 1597 366
Q 2025 366 2223 497
Q 2422 628 2422 891
Q 2422 1091 2284 1216
Q 2147 1341 1841 1422
L 1438 1528
Q 953 1653 748 1773
Q 544 1894 428 2066
Q 313 2238 313 2488
Q 313 2950 642 3192
Q 972 3434 1603 3434
Q 2163 3434 2492 3237
Q 2822 3041 2909 2606
L 2403 2544
Q 2356 2769 2151 2889
Q 1947 3009 1603 3009
Q 1222 3009 1040 2893
Q 859 2778 859 2544
Q 859 2400 934 2306
Q 1009 2213 1156 2147
Q 1303 2081 1775 1966
Q 2222 1853 2419 1758
Q 2616 1663 2730 1547
Q 2844 1431 2906 1279
Q 2969 1128 2969 934
z
" transform="scale(0.015625)"/>
      </defs>
      <use xlink:href="#LiberationSans-31"/>
      <use xlink:href="#LiberationSans-58" transform="translate(72.21875 0)"/>
      <use xlink:href="#LiberationSans-50" transform="translate(127.828125 0)"/>
      <use xlink:href="#LiberationSans-45" transform="translate(211.125 0)"/>
      <use xlink:href="#LiberationSans-48" transform="translate(266.734375 0)"/>
      <use xlink:href="#LiberationSans-55" transform="translate(322.34375 0)"/>
      <use xlink:href="#LiberationSans-3" transform="translate(355.640625 0)"/>
      <use xlink:href="#LiberationSans-52" transform="translate(383.421875 0)"/>
      <use xlink:href="#LiberationSans-49" transform="translate(439.03125 0)"/>
      <use xlink:href="#LiberationSans-3" transform="translate(466.8125 0)"/>
      <use xlink:href="#LiberationSans-3c" transform="translate(492.78125 0)"/>
      <use xlink:href="#LiberationSans-24" transform="translate(552.0625 0)"/>
      <use xlink:href="#LiberationSans-30" transform="translate(618.765625 0)"/>
      <use xlink:href="#LiberationSans-2f" transform="translate(702.0625 0)"/>
      <use xlink:href="#LiberationSans-3" transform="translate(753.96875 0)"/>
      <use xlink:href="#LiberationSans-49" transform="translate(781.75 0)"/>
      <use xlink:href="#LiberationSans-4c" transform="translate(809.53125 0)"/>
      <use xlink:href="#LiberationSans-4f" transform="translate(831.75 0)"/>
      <use xlink:href="#LiberationSans-48" transform="translate(853.96875 0)"/>
      <use xlink:href="#LiberationSans-56" transform="translate(909.578125 0)"/>
     </g>
    </g>
   </g>
   <g id="matplotlib.axis_2">
    <g id="ytick_1">
     <g id="line2d_19">
      <path d="M 42.140273 345.461631
L 514.270137 345.461631
" clip-path="url(#p0a91b32804)" style="fill: none; stroke: #cccccc; stroke-width: 0.8; stroke-linecap: round"/>
     </g>
     <g id="line2d_20"/>
     <g id="text_11">
      <!-- 0.0 -->
      <g style="fill: #262626" transform="translate(24.740273 349.101768) scale(0.1 -0.1)">
       <defs>
        <path id="LiberationSans-11" d="M 584 0
L 584 684
L 1194 684
L 1194 0
L 584 0
z
" transform="scale(0.015625)"/>
       </defs>
       <use xlink:href="#LiberationSans-13"/>
       <use xlink:href="#LiberationSans-11" transform="translate(55.609375 0)"/>
       <use xlink:href="#LiberationSans-13" transform="translate(83.390625 0)"/>
      </g>
     </g>
    </g>
    <g id="ytick_2">
     <g id="line2d_21">
      <path d="M 42.140273 283.799831
L 514.270137 283.799831
" clip-path="url(#p0a91b32804)" style="fill: none; stroke: #cccccc; stroke-width: 0.8; stroke-linecap: round"/>
     </g>
     <g id="line2d_22"/>
     <g id="text_12">
      <!-- 0.5 -->
      <g style="fill: #262626" transform="translate(24.740273 287.439968) scale(0.1 -0.1)">
       <use xlink:href="#LiberationSans-13"/>
       <use xlink:href="#LiberationSans-11" transform="translate(55.609375 0)"/>
       <use xlink:href="#LiberationSans-18" transform="translate(83.390625 0)"/>
      </g>
     </g>
    </g>
    <g id="ytick_3">
     <g id="line2d_23">
      <path d="M 42.140273 222.138031
L 514.270137 222.138031
" clip-path="url(#p0a91b32804)" style="fill: none; stroke: #cccccc; stroke-width: 0.8; stroke-linecap: round"/>
     </g>
     <g id="line2d_24"/>
     <g id="text_13">
      <!-- 1.0 -->
      <g style="fill: #262626" transform="translate(24.740273 225.778168) scale(0.1 -0.1)">
       <use xlink:href="#LiberationSans-14"/>
       <use xlink:href="#LiberationSans-11" transform="translate(55.609375 0)"/>
       <use xlink:href="#LiberationSans-13" transform="translate(83.390625 0)"/>
      </g>
     </g>
    </g>
    <g id="ytick_4">
     <g id="line2d_25">
      <path d="M 42.140273 160.476231
L 514.270137 160.476231
" clip-path="url(#p0a91b32804)" style="fill: none; stroke: #cccccc; stroke-width: 0.8; stroke-linecap: round"/>
     </g>
     <g id="line2d_26"/>
     <g id="text_14">
      <!-- 1.5 -->
      <g style="fill: #262626" transform="translate(24.740273 164.116368) scale(0.1 -0.1)">
       <use xlink:href="#LiberationSans-14"/>
       <use xlink:href="#LiberationSans-11" transform="translate(55.609375 0)"/>
       <use xlink:href="#LiberationSans-18" transform="translate(83.390625 0)"/>
      </g>
     </g>
    </g>
    <g id="ytick_5">
     <g id="line2d_27">
      <path d="M 42.140273 98.814431
L 514.270137 98.814431
" clip-path="url(#p0a91b32804)" style="fill: none; stroke: #cccccc; stroke-width: 0.8; stroke-linecap: round"/>
     </g>
     <g id="line2d_28"/>
     <g id="text_15">
      <!-- 2.0 -->
      <g style="fill: #262626" transform="translate(24.740273 102.454568) scale(0.1 -0.1)">
       <use xlink:href="#LiberationSans-15"/>
       <use xlink:href="#LiberationSans-11" transform="translate(55.609375 0)"/>
       <use xlink:href="#LiberationSans-13" transform="translate(83.390625 0)"/>
      </g>
     </g>
    </g>
    <g id="text_16">
     <!-- Mean runtime (seconds) -->
     <g style="fill: #262626" transform="translate(18.635781 257.712607) rotate(-90) scale(0.1 -0.1)">
      <defs>
       <path id="LiberationSans-44" d="M 1294 -63
Q 784 -63 528 206
Q 272 475 272 944
Q 272 1469 617 1750
Q 963 2031 1731 2050
L 2491 2063
L 2491 2247
Q 2491 2659 2316 2837
Q 2141 3016 1766 3016
Q 1388 3016 1216 2887
Q 1044 2759 1009 2478
L 422 2531
Q 566 3444 1778 3444
Q 2416 3444 2737 3151
Q 3059 2859 3059 2306
L 3059 850
Q 3059 600 3125 473
Q 3191 347 3375 347
Q 3456 347 3559 369
L 3559 19
Q 3347 -31 3125 -31
Q 2813 -31 2670 133
Q 2528 297 2509 647
L 2491 647
Q 2275 259 1989 98
Q 1703 -63 1294 -63
z
M 1422 359
Q 1731 359 1972 500
Q 2213 641 2352 886
Q 2491 1131 2491 1391
L 2491 1669
L 1875 1656
Q 1478 1650 1273 1575
Q 1069 1500 959 1344
Q 850 1188 850 934
Q 850 659 998 509
Q 1147 359 1422 359
z
" transform="scale(0.015625)"/>
       <path id="LiberationSans-51" d="M 2578 0
L 2578 2144
Q 2578 2478 2512 2662
Q 2447 2847 2303 2928
Q 2159 3009 1881 3009
Q 1475 3009 1240 2731
Q 1006 2453 1006 1959
L 1006 0
L 444 0
L 444 2659
Q 444 3250 425 3381
L 956 3381
Q 959 3366 962 3297
Q 966 3228 970 3139
Q 975 3050 981 2803
L 991 2803
Q 1184 3153 1439 3298
Q 1694 3444 2072 3444
Q 2628 3444 2886 3167
Q 3144 2891 3144 2253
L 3144 0
L 2578 0
z
" transform="scale(0.015625)"/>
       <path id="LiberationSans-57" d="M 1731 25
Q 1453 -50 1163 -50
Q 488 -50 488 716
L 488 2972
L 97 2972
L 97 3381
L 509 3381
L 675 4138
L 1050 4138
L 1050 3381
L 1675 3381
L 1675 2972
L 1050 2972
L 1050 838
Q 1050 594 1129 495
Q 1209 397 1406 397
Q 1519 397 1731 441
L 1731 25
z
" transform="scale(0.015625)"/>
       <path id="LiberationSans-b" d="M 397 1663
Q 397 2566 680 3284
Q 963 4003 1550 4638
L 2094 4638
Q 1509 3988 1236 3256
Q 963 2525 963 1656
Q 963 791 1233 62
Q 1503 -666 2094 -1325
L 1550 -1325
Q 959 -688 678 32
Q 397 753 397 1650
L 397 1663
z
" transform="scale(0.015625)"/>
       <path id="LiberationSans-46" d="M 859 1706
Q 859 1031 1071 706
Q 1284 381 1713 381
Q 2013 381 2214 543
Q 2416 706 2463 1044
L 3031 1006
Q 2966 519 2616 228
Q 2266 -63 1728 -63
Q 1019 -63 645 385
Q 272 834 272 1694
Q 272 2547 647 2995
Q 1022 3444 1722 3444
Q 2241 3444 2583 3175
Q 2925 2906 3013 2434
L 2434 2391
Q 2391 2672 2212 2837
Q 2034 3003 1706 3003
Q 1259 3003 1059 2706
Q 859 2409 859 1706
z
" transform="scale(0.015625)"/>
       <path id="LiberationSans-47" d="M 2566 544
Q 2409 219 2151 78
Q 1894 -63 1513 -63
Q 872 -63 570 368
Q 269 800 269 1675
Q 269 3444 1513 3444
Q 1897 3444 2153 3303
Q 2409 3163 2566 2856
L 2572 2856
L 2566 3234
L 2566 4638
L 3128 4638
L 3128 697
Q 3128 169 3147 0
L 2609 0
Q 2600 50 2589 231
Q 2578 413 2578 544
L 2566 544
z
M 859 1694
Q 859 984 1046 678
Q 1234 372 1656 372
Q 2134 372 2350 703
Q 2566 1034 2566 1731
Q 2566 2403 2350 2715
Q 2134 3028 1663 3028
Q 1238 3028 1048 2714
Q 859 2400 859 1694
z
" transform="scale(0.015625)"/>
       <path id="LiberationSans-c" d="M 1734 1650
Q 1734 747 1451 28
Q 1169 -691 581 -1325
L 38 -1325
Q 625 -669 897 57
Q 1169 784 1169 1656
Q 1169 2528 895 3256
Q 622 3984 38 4638
L 581 4638
Q 1172 4000 1453 3279
Q 1734 2559 1734 1663
L 1734 1650
z
" transform="scale(0.015625)"/>
      </defs>
      <use xlink:href="#LiberationSans-30"/>
      <use xlink:href="#LiberationSans-48" transform="translate(83.296875 0)"/>
      <use xlink:href="#LiberationSans-44" transform="translate(138.90625 0)"/>
      <use xlink:href="#LiberationSans-51" transform="translate(194.515625 0)"/>
      <use xlink:href="#LiberationSans-3" transform="translate(250.125 0)"/>
      <use xlink:href="#LiberationSans-55" transform="translate(277.90625 0)"/>
      <use xlink:href="#LiberationSans-58" transform="translate(311.203125 0)"/>
      <use xlink:href="#LiberationSans-51" transform="translate(366.8125 0)"/>
      <use xlink:href="#LiberationSans-57" transform="translate(422.421875 0)"/>
      <use xlink:href="#LiberationSans-4c" transform="translate(450.203125 0)"/>
      <use xlink:href="#LiberationSans-50" transform="translate(472.421875 0)"/>
      <use xlink:href="#LiberationSans-48" transform="translate(555.71875 0)"/>
      <use xlink:href="#LiberationSans-3" transform="translate(611.328125 0)"/>
      <use xlink:href="#LiberationSans-b" transform="translate(639.109375 0)"/>
      <use xlink:href="#LiberationSans-56" transform="translate(672.40625 0)"/>
      <use xlink:href="#LiberationSans-48" transform="translate(722.40625 0)"/>
      <use xlink:href="#LiberationSans-46" transform="translate(778.015625 0)"/>
      <use xlink:href="#LiberationSans-52" transform="translate(828.015625 0)"/>
      <use xlink:href="#LiberationSans-51" transform="translate(883.625 0)"/>
      <use xlink:href="#LiberationSans-47" transform="translate(939.234375 0)"/>
      <use xlink:href="#LiberationSans-56" transform="translate(994.84375 0)"/>
      <use xlink:href="#LiberationSans-c" transform="translate(1044.84375 0)"/>
     </g>
    </g>
   </g>
   <g id="FillBetweenPolyCollection_1">
    <defs>
     <path id="m0d618eccf4" d="M 63.600722 -51.212564
L 63.600722 -51.171794
L 170.902963 -51.276998
L 278.205205 -51.453862
L 385.507447 -51.603023
L 492.809688 -51.662697
L 492.809688 -51.870528
L 492.809688 -51.870528
L 385.507447 -51.703522
L 278.205205 -51.513252
L 170.902963 -51.415888
L 63.600722 -51.212564
z
" style="stroke: #a6cee4; stroke-opacity: 0.16"/>
    </defs>
    <g clip-path="url(#p0a91b32804)">
     <use xlink:href="#m0d618eccf4" x="0" y="396" style="fill: #a6cee4; fill-opacity: 0.16; stroke: #a6cee4; stroke-opacity: 0.16"/>
    </g>
   </g>
   <g id="FillBetweenPolyCollection_2">
    <defs>
     <path id="mbf1d9f2820" d="M 63.600722 -51.42504
L 63.600722 -51.300671
L 170.902963 -51.590324
L 278.205205 -51.727707
L 385.507447 -52.022097
L 492.809688 -52.250636
L 492.809688 -52.566123
L 492.809688 -52.566123
L 385.507447 -52.226087
L 278.205205 -51.884576
L 170.902963 -51.736901
L 63.600722 -51.42504
z
" style="stroke: #6aaed6; stroke-opacity: 0.16"/>
    </defs>
    <g clip-path="url(#p0a91b32804)">
     <use xlink:href="#mbf1d9f2820" x="0" y="396" style="fill: #6aaed6; fill-opacity: 0.16; stroke: #6aaed6; stroke-opacity: 0.16"/>
    </g>
   </g>
   <g id="FillBetweenPolyCollection_3">
    <defs>
     <path id="m71035be16b" d="M 63.600722 -51.56289
L 63.600722 -51.448408
L 170.902963 -51.760358
L 278.205205 -52.000692
L 385.507447 -52.350747
L 492.809688 -52.759436
L 492.809688 -52.9141
L 492.809688 -52.9141
L 385.507447 -52.479883
L 278.205205 -52.593293
L 170.902963 -51.851912
L 63.600722 -51.56289
z
" style="stroke: #3b8bc2; stroke-opacity: 0.16"/>
    </defs>
    <g clip-path="url(#p0a91b32804)">
     <use xlink:href="#m71035be16b" x="0" y="396" style="fill: #3b8bc2; fill-opacity: 0.16; stroke: #3b8bc2; stroke-opacity: 0.16"/>
    </g>
   </g>
   <g id="FillBetweenPolyCollection_4">
    <defs>
     <path id="mf88d6f8c38" d="M 63.600722 -51.691262
L 63.600722 -51.560839
L 170.902963 -52.005268
L 278.205205 -52.392968
L 385.507447 -52.822486
L 492.809688 -53.305249
L 492.809688 -53.460938
L 492.809688 -53.460938
L 385.507447 -53.151367
L 278.205205 -52.415344
L 170.902963 -52.088738
L 63.600722 -51.691262
z
" style="stroke: #1764ab; stroke-opacity: 0.16"/>
    </defs>
    <g clip-path="url(#p0a91b32804)">
     <use xlink:href="#mf88d6f8c38" x="0" y="396" style="fill: #1764ab; fill-opacity: 0.16; stroke: #1764ab; stroke-opacity: 0.16"/>
    </g>
   </g>
   <g id="FillBetweenPolyCollection_5">
    <defs>
     <path id="mc6ef03a2f3" d="M 63.600722 -51.746707
L 63.600722 -51.655348
L 170.902963 -52.259022
L 278.205205 -52.974577
L 385.507447 -53.45835
L 492.809688 -53.818076
L 492.809688 -54.090767
L 492.809688 -54.090767
L 385.507447 -53.768818
L 278.205205 -53.393142
L 170.902963 -52.382129
L 63.600722 -51.746707
z
" style="stroke: #083c7d; stroke-opacity: 0.16"/>
    </defs>
    <g clip-path="url(#p0a91b32804)">
     <use xlink:href="#mc6ef03a2f3" x="0" y="396" style="fill: #083c7d; fill-opacity: 0.16; stroke: #083c7d; stroke-opacity: 0.16"/>
    </g>
   </g>
   <g id="line2d_29">
    <path d="M 63.600722 344.807821
L 170.902963 344.653557
L 278.205205 344.516443
L 385.507447 344.346728
L 492.809688 344.233387
" clip-path="url(#p0a91b32804)" style="fill: none; stroke: #a6cee4; stroke-width: 2; stroke-linecap: round"/>
    <defs>
     <path id="m4803c2e0b2" d="M 0 3
C 0.795609 3 1.55874 2.683901 2.12132 2.12132
C 2.683901 1.55874 3 0.795609 3 0
C 3 -0.795609 2.683901 -1.55874 2.12132 -2.12132
C 1.55874 -2.683901 0.795609 -3 0 -3
C -0.795609 -3 -1.55874 -2.683901 -2.12132 -2.12132
C -2.683901 -1.55874 -3 -0.795609 -3 0
C -3 0.795609 -2.683901 1.55874 -2.12132 2.12132
C -1.55874 2.683901 -0.795609 3 0 3
z
" style="stroke: #a6cee4"/>
    </defs>
    <g clip-path="url(#p0a91b32804)">
     <use xlink:href="#m4803c2e0b2" x="63.600722" y="344.807821" style="fill: #a6cee4; stroke: #a6cee4"/>
     <use xlink:href="#m4803c2e0b2" x="170.902963" y="344.653557" style="fill: #a6cee4; stroke: #a6cee4"/>
     <use xlink:href="#m4803c2e0b2" x="278.205205" y="344.516443" style="fill: #a6cee4; stroke: #a6cee4"/>
     <use xlink:href="#m4803c2e0b2" x="385.507447" y="344.346728" style="fill: #a6cee4; stroke: #a6cee4"/>
     <use xlink:href="#m4803c2e0b2" x="492.809688" y="344.233387" style="fill: #a6cee4; stroke: #a6cee4"/>
    </g>
   </g>
   <g id="line2d_30">
    <path d="M 63.600722 344.637145
L 170.902963 344.336388
L 278.205205 344.193858
L 385.507447 343.875908
L 492.809688 343.59162
" clip-path="url(#p0a91b32804)" style="fill: none; stroke: #6aaed6; stroke-width: 2; stroke-linecap: round"/>
    <defs>
     <path id="mcf2226921e" d="M 0 3
C 0.795609 3 1.55874 2.683901 2.12132 2.12132
C 2.683901 1.55874 3 0.795609 3 0
C 3 -0.795609 2.683901 -1.55874 2.12132 -2.12132
C 1.55874 -2.683901 0.795609 -3 0 -3
C -0.795609 -3 -1.55874 -2.683901 -2.12132 -2.12132
C -2.683901 -1.55874 -3 -0.795609 -3 0
C -3 0.795609 -2.683901 1.55874 -2.12132 2.12132
C -1.55874 2.683901 -0.795609 3 0 3
z
" style="stroke: #6aaed6"/>
    </defs>
    <g clip-path="url(#p0a91b32804)">
     <use xlink:href="#mcf2226921e" x="63.600722" y="344.637145" style="fill: #6aaed6; stroke: #6aaed6"/>
     <use xlink:href="#mcf2226921e" x="170.902963" y="344.336388" style="fill: #6aaed6; stroke: #6aaed6"/>
     <use xlink:href="#mcf2226921e" x="278.205205" y="344.193858" style="fill: #6aaed6; stroke: #6aaed6"/>
     <use xlink:href="#mcf2226921e" x="385.507447" y="343.875908" style="fill: #6aaed6; stroke: #6aaed6"/>
     <use xlink:href="#mcf2226921e" x="492.809688" y="343.59162" style="fill: #6aaed6; stroke: #6aaed6"/>
    </g>
   </g>
   <g id="line2d_31">
    <path d="M 63.600722 344.494351
L 170.902963 344.193865
L 278.205205 343.703007
L 385.507447 343.584685
L 492.809688 343.163232
" clip-path="url(#p0a91b32804)" style="fill: none; stroke: #3b8bc2; stroke-width: 2; stroke-linecap: round"/>
    <defs>
     <path id="m9fdc4eb408" d="M 0 3
C 0.795609 3 1.55874 2.683901 2.12132 2.12132
C 2.683901 1.55874 3 0.795609 3 0
C 3 -0.795609 2.683901 -1.55874 2.12132 -2.12132
C 1.55874 -2.683901 0.795609 -3 0 -3
C -0.795609 -3 -1.55874 -2.683901 -2.12132 -2.12132
C -2.683901 -1.55874 -3 -0.795609 -3 0
C -3 0.795609 -2.683901 1.55874 -2.12132 2.12132
C -1.55874 2.683901 -0.795609 3 0 3
z
" style="stroke: #3b8bc2"/>
    </defs>
    <g clip-path="url(#p0a91b32804)">
     <use xlink:href="#m9fdc4eb408" x="63.600722" y="344.494351" style="fill: #3b8bc2; stroke: #3b8bc2"/>
     <use xlink:href="#m9fdc4eb408" x="170.902963" y="344.193865" style="fill: #3b8bc2; stroke: #3b8bc2"/>
     <use xlink:href="#m9fdc4eb408" x="278.205205" y="343.703007" style="fill: #3b8bc2; stroke: #3b8bc2"/>
     <use xlink:href="#m9fdc4eb408" x="385.507447" y="343.584685" style="fill: #3b8bc2; stroke: #3b8bc2"/>
     <use xlink:href="#m9fdc4eb408" x="492.809688" y="343.163232" style="fill: #3b8bc2; stroke: #3b8bc2"/>
    </g>
   </g>
   <g id="line2d_32">
    <path d="M 63.600722 344.373949
L 170.902963 343.952997
L 278.205205 343.595844
L 385.507447 343.013074
L 492.809688 342.616906
" clip-path="url(#p0a91b32804)" style="fill: none; stroke: #1764ab; stroke-width: 2; stroke-linecap: round"/>
    <defs>
     <path id="m93031f03eb" d="M 0 3
C 0.795609 3 1.55874 2.683901 2.12132 2.12132
C 2.683901 1.55874 3 0.795609 3 0
C 3 -0.795609 2.683901 -1.55874 2.12132 -2.12132
C 1.55874 -2.683901 0.795609 -3 0 -3
C -0.795609 -3 -1.55874 -2.683901 -2.12132 -2.12132
C -2.683901 -1.55874 -3 -0.795609 -3 0
C -3 0.795609 -2.683901 1.55874 -2.12132 2.12132
C -1.55874 2.683901 -0.795609 3 0 3
z
" style="stroke: #1764ab"/>
    </defs>
    <g clip-path="url(#p0a91b32804)">
     <use xlink:href="#m93031f03eb" x="63.600722" y="344.373949" style="fill: #1764ab; stroke: #1764ab"/>
     <use xlink:href="#m93031f03eb" x="170.902963" y="343.952997" style="fill: #1764ab; stroke: #1764ab"/>
     <use xlink:href="#m93031f03eb" x="278.205205" y="343.595844" style="fill: #1764ab; stroke: #1764ab"/>
     <use xlink:href="#m93031f03eb" x="385.507447" y="343.013074" style="fill: #1764ab; stroke: #1764ab"/>
     <use xlink:href="#m93031f03eb" x="492.809688" y="342.616906" style="fill: #1764ab; stroke: #1764ab"/>
    </g>
   </g>
   <g id="line2d_33">
    <path d="M 63.600722 344.298972
L 170.902963 343.679425
L 278.205205 342.816141
L 385.507447 342.386416
L 492.809688 342.045579
" clip-path="url(#p0a91b32804)" style="fill: none; stroke: #083c7d; stroke-width: 2; stroke-linecap: round"/>
    <defs>
     <path id="m6473a55f58" d="M 0 3
C 0.795609 3 1.55874 2.683901 2.12132 2.12132
C 2.683901 1.55874 3 0.795609 3 0
C 3 -0.795609 2.683901 -1.55874 2.12132 -2.12132
C 1.55874 -2.683901 0.795609 -3 0 -3
C -0.795609 -3 -1.55874 -2.683901 -2.12132 -2.12132
C -2.683901 -1.55874 -3 -0.795609 -3 0
C -3 0.795609 -2.683901 1.55874 -2.12132 2.12132
C -1.55874 2.683901 -0.795609 3 0 3
z
" style="stroke: #083c7d"/>
    </defs>
    <g clip-path="url(#p0a91b32804)">
     <use xlink:href="#m6473a55f58" x="63.600722" y="344.298972" style="fill: #083c7d; stroke: #083c7d"/>
     <use xlink:href="#m6473a55f58" x="170.902963" y="343.679425" style="fill: #083c7d; stroke: #083c7d"/>
     <use xlink:href="#m6473a55f58" x="278.205205" y="342.816141" style="fill: #083c7d; stroke: #083c7d"/>
     <use xlink:href="#m6473a55f58" x="385.507447" y="342.386416" style="fill: #083c7d; stroke: #083c7d"/>
     <use xlink:href="#m6473a55f58" x="492.809688" y="342.045579" style="fill: #083c7d; stroke: #083c7d"/>
    </g>
   </g>
   <g id="patch_3">
    <path d="M 42.140273 358.930469
L 42.140273 48.680684
" style="fill: none; stroke: #cccccc; stroke-linejoin: miter; stroke-linecap: square"/>
   </g>
   <g id="patch_4">
    <path d="M 514.270137 358.930469
L 514.270137 48.680684
" style="fill: none; stroke: #cccccc; stroke-linejoin: miter; stroke-linecap: square"/>
   </g>
   <g id="patch_5">
    <path d="M 42.140273 358.930469
L 514.270137 358.930469
" style="fill: none; stroke: #cccccc; stroke-linejoin: miter; stroke-linecap: square"/>
   </g>
   <g id="patch_6">
    <path d="M 42.140273 48.680684
L 514.270137 48.680684
" style="fill: none; stroke: #cccccc; stroke-linejoin: miter; stroke-linecap: square"/>
   </g>
   <g id="text_17">
    <!-- ryl 0.20.0 -->
    <g style="fill: #262626" transform="translate(253.527393 42.680684) scale(0.12 -0.12)">
     <defs>
      <path id="LiberationSans-5c" d="M 597 -1328
Q 366 -1328 209 -1294
L 209 -872
Q 328 -891 472 -891
Q 997 -891 1303 -119
L 1356 16
L 16 3381
L 616 3381
L 1328 1513
Q 1344 1469 1366 1408
Q 1388 1347 1506 1000
Q 1625 653 1634 613
L 1853 1228
L 2594 3381
L 3188 3381
L 1888 0
Q 1678 -541 1497 -805
Q 1316 -1069 1095 -1198
Q 875 -1328 597 -1328
z
" transform="scale(0.015625)"/>
     </defs>
     <use xlink:href="#LiberationSans-55"/>
     <use xlink:href="#LiberationSans-5c" transform="translate(33.296875 0)"/>
     <use xlink:href="#LiberationSans-4f" transform="translate(83.296875 0)"/>
     <use xlink:href="#LiberationSans-3" transform="translate(105.515625 0)"/>
     <use xlink:href="#LiberationSans-13" transform="translate(133.296875 0)"/>
     <use xlink:href="#LiberationSans-11" transform="translate(188.90625 0)"/>
     <use xlink:href="#LiberationSans-15" transform="translate(216.6875 0)"/>
     <use xlink:href="#LiberationSans-13" transform="translate(272.296875 0)"/>
     <use xlink:href="#LiberationSans-11" transform="translate(327.90625 0)"/>
     <use xlink:href="#LiberationSans-13" transform="translate(355.6875 0)"/>
    </g>
   </g>
  </g>
  <g id="axes_2">
   <g id="patch_7">
    <path d="M 525.070137 358.930469
L 997.2 358.930469
L 997.2 48.680684
L 525.070137 48.680684
z
" style="fill: #ffffff"/>
   </g>
   <g id="matplotlib.axis_3">
    <g id="xtick_10">
     <g id="line2d_34">
      <path d="M 546.530585 358.930469
L 546.530585 48.680684
" clip-path="url(#p1e89d684a9)" style="fill: none; stroke: #cccccc; stroke-width: 0.8; stroke-linecap: round"/>
     </g>
     <g id="line2d_35"/>
     <g id="text_18">
      <!-- 20 -->
      <g style="fill: #262626" transform="translate(540.969648 369.710742) scale(0.1 -0.1)">
       <use xlink:href="#LiberationSans-15"/>
       <use xlink:href="#LiberationSans-13" transform="translate(55.609375 0)"/>
      </g>
     </g>
    </g>
    <g id="xtick_11">
     <g id="line2d_36">
      <path d="M 600.181706 358.930469
L 600.181706 48.680684
" clip-path="url(#p1e89d684a9)" style="fill: none; stroke: #cccccc; stroke-width: 0.8; stroke-linecap: round"/>
     </g>
     <g id="line2d_37"/>
     <g id="text_19">
      <!-- 30 -->
      <g style="fill: #262626" transform="translate(594.620768 369.710742) scale(0.1 -0.1)">
       <use xlink:href="#LiberationSans-16"/>
       <use xlink:href="#LiberationSans-13" transform="translate(55.609375 0)"/>
      </g>
     </g>
    </g>
    <g id="xtick_12">
     <g id="line2d_38">
      <path d="M 653.832827 358.930469
L 653.832827 48.680684
" clip-path="url(#p1e89d684a9)" style="fill: none; stroke: #cccccc; stroke-width: 0.8; stroke-linecap: round"/>
     </g>
     <g id="line2d_39"/>
     <g id="text_20">
      <!-- 40 -->
      <g style="fill: #262626" transform="translate(648.271889 369.710742) scale(0.1 -0.1)">
       <use xlink:href="#LiberationSans-17"/>
       <use xlink:href="#LiberationSans-13" transform="translate(55.609375 0)"/>
      </g>
     </g>
    </g>
    <g id="xtick_13">
     <g id="line2d_40">
      <path d="M 707.483948 358.930469
L 707.483948 48.680684
" clip-path="url(#p1e89d684a9)" style="fill: none; stroke: #cccccc; stroke-width: 0.8; stroke-linecap: round"/>
     </g>
     <g id="line2d_41"/>
     <g id="text_21">
      <!-- 50 -->
      <g style="fill: #262626" transform="translate(701.92301 369.710742) scale(0.1 -0.1)">
       <use xlink:href="#LiberationSans-18"/>
       <use xlink:href="#LiberationSans-13" transform="translate(55.609375 0)"/>
      </g>
     </g>
    </g>
    <g id="xtick_14">
     <g id="line2d_42">
      <path d="M 761.135068 358.930469
L 761.135068 48.680684
" clip-path="url(#p1e89d684a9)" style="fill: none; stroke: #cccccc; stroke-width: 0.8; stroke-linecap: round"/>
     </g>
     <g id="line2d_43"/>
     <g id="text_22">
      <!-- 60 -->
      <g style="fill: #262626" transform="translate(755.574131 369.710742) scale(0.1 -0.1)">
       <use xlink:href="#LiberationSans-19"/>
       <use xlink:href="#LiberationSans-13" transform="translate(55.609375 0)"/>
      </g>
     </g>
    </g>
    <g id="xtick_15">
     <g id="line2d_44">
      <path d="M 814.786189 358.930469
L 814.786189 48.680684
" clip-path="url(#p1e89d684a9)" style="fill: none; stroke: #cccccc; stroke-width: 0.8; stroke-linecap: round"/>
     </g>
     <g id="line2d_45"/>
     <g id="text_23">
      <!-- 70 -->
      <g style="fill: #262626" transform="translate(809.225252 369.710742) scale(0.1 -0.1)">
       <use xlink:href="#LiberationSans-1a"/>
       <use xlink:href="#LiberationSans-13" transform="translate(55.609375 0)"/>
      </g>
     </g>
    </g>
    <g id="xtick_16">
     <g id="line2d_46">
      <path d="M 868.43731 358.930469
L 868.43731 48.680684
" clip-path="url(#p1e89d684a9)" style="fill: none; stroke: #cccccc; stroke-width: 0.8; stroke-linecap: round"/>
     </g>
     <g id="line2d_47"/>
     <g id="text_24">
      <!-- 80 -->
      <g style="fill: #262626" transform="translate(862.876373 369.710742) scale(0.1 -0.1)">
       <use xlink:href="#LiberationSans-1b"/>
       <use xlink:href="#LiberationSans-13" transform="translate(55.609375 0)"/>
      </g>
     </g>
    </g>
    <g id="xtick_17">
     <g id="line2d_48">
      <path d="M 922.088431 358.930469
L 922.088431 48.680684
" clip-path="url(#p1e89d684a9)" style="fill: none; stroke: #cccccc; stroke-width: 0.8; stroke-linecap: round"/>
     </g>
     <g id="line2d_49"/>
     <g id="text_25">
      <!-- 90 -->
      <g style="fill: #262626" transform="translate(916.527493 369.710742) scale(0.1 -0.1)">
       <use xlink:href="#LiberationSans-1c"/>
       <use xlink:href="#LiberationSans-13" transform="translate(55.609375 0)"/>
      </g>
     </g>
    </g>
    <g id="xtick_18">
     <g id="line2d_50">
      <path d="M 975.739552 358.930469
L 975.739552 48.680684
" clip-path="url(#p1e89d684a9)" style="fill: none; stroke: #cccccc; stroke-width: 0.8; stroke-linecap: round"/>
     </g>
     <g id="line2d_51"/>
     <g id="text_26">
      <!-- 100 -->
      <g style="fill: #262626" transform="translate(967.398145 369.710742) scale(0.1 -0.1)">
       <use xlink:href="#LiberationSans-14"/>
       <use xlink:href="#LiberationSans-13" transform="translate(55.609375 0)"/>
       <use xlink:href="#LiberationSans-13" transform="translate(111.21875 0)"/>
      </g>
     </g>
    </g>
    <g id="text_27">
     <!-- Number of YAML files -->
     <g style="fill: #262626" transform="translate(713.156162 383.095508) scale(0.1 -0.1)">
      <use xlink:href="#LiberationSans-31"/>
      <use xlink:href="#LiberationSans-58" transform="translate(72.21875 0)"/>
      <use xlink:href="#LiberationSans-50" transform="translate(127.828125 0)"/>
      <use xlink:href="#LiberationSans-45" transform="translate(211.125 0)"/>
      <use xlink:href="#LiberationSans-48" transform="translate(266.734375 0)"/>
      <use xlink:href="#LiberationSans-55" transform="translate(322.34375 0)"/>
      <use xlink:href="#LiberationSans-3" transform="translate(355.640625 0)"/>
      <use xlink:href="#LiberationSans-52" transform="translate(383.421875 0)"/>
      <use xlink:href="#LiberationSans-49" transform="translate(439.03125 0)"/>
      <use xlink:href="#LiberationSans-3" transform="translate(466.8125 0)"/>
      <use xlink:href="#LiberationSans-3c" transform="translate(492.78125 0)"/>
      <use xlink:href="#LiberationSans-24" transform="translate(552.0625 0)"/>
      <use xlink:href="#LiberationSans-30" transform="translate(618.765625 0)"/>
      <use xlink:href="#LiberationSans-2f" transform="translate(702.0625 0)"/>
      <use xlink:href="#LiberationSans-3" transform="translate(753.96875 0)"/>
      <use xlink:href="#LiberationSans-49" transform="translate(781.75 0)"/>
      <use xlink:href="#LiberationSans-4c" transform="translate(809.53125 0)"/>
      <use xlink:href="#LiberationSans-4f" transform="translate(831.75 0)"/>
      <use xlink:href="#LiberationSans-48" transform="translate(853.96875 0)"/>
      <use xlink:href="#LiberationSans-56" transform="translate(909.578125 0)"/>
     </g>
    </g>
   </g>
   <g id="matplotlib.axis_4">
    <g id="ytick_6">
     <g id="line2d_52">
      <path d="M 525.070137 345.461631
L 997.2 345.461631
" clip-path="url(#p1e89d684a9)" style="fill: none; stroke: #cccccc; stroke-width: 0.8; stroke-linecap: round"/>
     </g>
     <g id="line2d_53"/>
    </g>
    <g id="ytick_7">
     <g id="line2d_54">
      <path d="M 525.070137 283.799831
L 997.2 283.799831
" clip-path="url(#p1e89d684a9)" style="fill: none; stroke: #cccccc; stroke-width: 0.8; stroke-linecap: round"/>
     </g>
     <g id="line2d_55"/>
    </g>
    <g id="ytick_8">
     <g id="line2d_56">
      <path d="M 525.070137 222.138031
L 997.2 222.138031
" clip-path="url(#p1e89d684a9)" style="fill: none; stroke: #cccccc; stroke-width: 0.8; stroke-linecap: round"/>
     </g>
     <g id="line2d_57"/>
    </g>
    <g id="ytick_9">
     <g id="line2d_58">
      <path d="M 525.070137 160.476231
L 997.2 160.476231
" clip-path="url(#p1e89d684a9)" style="fill: none; stroke: #cccccc; stroke-width: 0.8; stroke-linecap: round"/>
     </g>
     <g id="line2d_59"/>
    </g>
    <g id="ytick_10">
     <g id="line2d_60">
      <path d="M 525.070137 98.814431
L 997.2 98.814431
" clip-path="url(#p1e89d684a9)" style="fill: none; stroke: #cccccc; stroke-width: 0.8; stroke-linecap: round"/>
     </g>
     <g id="line2d_61"/>
    </g>
   </g>
   <g id="FillBetweenPolyCollection_6">
    <defs>
     <path id="m5699dafcca" d="M 546.530585 -66.860132
L 546.530585 -66.349222
L 653.832827 -73.048904
L 761.135068 -79.67624
L 868.43731 -86.327851
L 975.739552 -92.822762
L 975.739552 -94.171843
L 975.739552 -94.171843
L 868.43731 -87.285152
L 761.135068 -81.005939
L 653.832827 -73.737509
L 546.530585 -66.860132
z
" style="stroke: #a6cee4; stroke-opacity: 0.16"/>
    </defs>
    <g clip-path="url(#p1e89d684a9)">
     <use xlink:href="#m5699dafcca" x="0" y="396" style="fill: #a6cee4; fill-opacity: 0.16; stroke: #a6cee4; stroke-opacity: 0.16"/>
    </g>
   </g>
   <g id="FillBetweenPolyCollection_7">
    <defs>
     <path id="m1c9505b1cb" d="M 546.530585 -79.165086
L 546.530585 -78.34073
L 653.832827 -96.897787
L 761.135068 -114.478176
L 868.43731 -133.893337
L 975.739552 -152.112729
L 975.739552 -153.509994
L 975.739552 -153.509994
L 868.43731 -134.723975
L 761.135068 -121.022281
L 653.832827 -97.297041
L 546.530585 -79.165086
z
" style="stroke: #6aaed6; stroke-opacity: 0.16"/>
    </defs>
    <g clip-path="url(#p1e89d684a9)">
     <use xlink:href="#m1c9505b1cb" x="0" y="396" style="fill: #6aaed6; fill-opacity: 0.16; stroke: #6aaed6; stroke-opacity: 0.16"/>
    </g>
   </g>
   <g id="FillBetweenPolyCollection_8">
    <defs>
     <path id="m9fb3d050fd" d="M 546.530585 -91.194495
L 546.530585 -89.478015
L 653.832827 -119.380787
L 761.135068 -149.559392
L 868.43731 -180.676613
L 975.739552 -209.681629
L 975.739552 -213.340984
L 975.739552 -213.340984
L 868.43731 -182.35623
L 761.135068 -151.490068
L 653.832827 -120.365179
L 546.530585 -91.194495
z
" style="stroke: #3b8bc2; stroke-opacity: 0.16"/>
    </defs>
    <g clip-path="url(#p1e89d684a9)">
     <use xlink:href="#m9fb3d050fd" x="0" y="396" style="fill: #3b8bc2; fill-opacity: 0.16; stroke: #3b8bc2; stroke-opacity: 0.16"/>
    </g>
   </g>
   <g id="FillBetweenPolyCollection_9">
    <defs>
     <path id="m9b0fc1f2a9" d="M 546.530585 -103.15152
L 546.530585 -101.936999
L 653.832827 -143.883852
L 761.135068 -186.101915
L 868.43731 -227.870083
L 975.739552 -270.06251
L 975.739552 -273.163403
L 975.739552 -273.163403
L 868.43731 -230.876822
L 761.135068 -188.363399
L 653.832827 -145.823471
L 546.530585 -103.15152
z
" style="stroke: #1764ab; stroke-opacity: 0.16"/>
    </defs>
    <g clip-path="url(#p1e89d684a9)">
     <use xlink:href="#m9b0fc1f2a9" x="0" y="396" style="fill: #1764ab; fill-opacity: 0.16; stroke: #1764ab; stroke-opacity: 0.16"/>
    </g>
   </g>
   <g id="FillBetweenPolyCollection_10">
    <defs>
     <path id="m7879267f83" d="M 546.530585 -114.568996
L 546.530585 -113.837203
L 653.832827 -168.160193
L 761.135068 -221.416365
L 868.43731 -277.955415
L 975.739552 -329.005124
L 975.739552 -333.217053
L 975.739552 -333.217053
L 868.43731 -280.293698
L 761.135068 -228.93773
L 653.832827 -173.53282
L 546.530585 -114.568996
z
" style="stroke: #083c7d; stroke-opacity: 0.16"/>
    </defs>
    <g clip-path="url(#p1e89d684a9)">
     <use xlink:href="#m7879267f83" x="0" y="396" style="fill: #083c7d; fill-opacity: 0.16; stroke: #083c7d; stroke-opacity: 0.16"/>
    </g>
   </g>
   <g id="line2d_62">
    <path d="M 546.530585 329.395323
L 653.832827 322.606794
L 761.135068 315.65891
L 868.43731 309.193498
L 975.739552 302.502698
" clip-path="url(#p1e89d684a9)" style="fill: none; stroke: #a6cee4; stroke-width: 2; stroke-linecap: round"/>
    <g clip-path="url(#p1e89d684a9)">
     <use xlink:href="#m4803c2e0b2" x="546.530585" y="329.395323" style="fill: #a6cee4; stroke: #a6cee4"/>
     <use xlink:href="#m4803c2e0b2" x="653.832827" y="322.606794" style="fill: #a6cee4; stroke: #a6cee4"/>
     <use xlink:href="#m4803c2e0b2" x="761.135068" y="315.65891" style="fill: #a6cee4; stroke: #a6cee4"/>
     <use xlink:href="#m4803c2e0b2" x="868.43731" y="309.193498" style="fill: #a6cee4; stroke: #a6cee4"/>
     <use xlink:href="#m4803c2e0b2" x="975.739552" y="302.502698" style="fill: #a6cee4; stroke: #a6cee4"/>
    </g>
   </g>
   <g id="line2d_63">
    <path d="M 546.530585 317.247092
L 653.832827 298.902586
L 761.135068 278.249772
L 868.43731 261.691344
L 975.739552 243.188638
" clip-path="url(#p1e89d684a9)" style="fill: none; stroke: #6aaed6; stroke-width: 2; stroke-linecap: round"/>
    <g clip-path="url(#p1e89d684a9)">
     <use xlink:href="#mcf2226921e" x="546.530585" y="317.247092" style="fill: #6aaed6; stroke: #6aaed6"/>
     <use xlink:href="#mcf2226921e" x="653.832827" y="298.902586" style="fill: #6aaed6; stroke: #6aaed6"/>
     <use xlink:href="#mcf2226921e" x="761.135068" y="278.249772" style="fill: #6aaed6; stroke: #6aaed6"/>
     <use xlink:href="#mcf2226921e" x="868.43731" y="261.691344" style="fill: #6aaed6; stroke: #6aaed6"/>
     <use xlink:href="#mcf2226921e" x="975.739552" y="243.188638" style="fill: #6aaed6; stroke: #6aaed6"/>
    </g>
   </g>
   <g id="line2d_64">
    <path d="M 546.530585 305.663745
L 653.832827 276.127017
L 761.135068 245.47527
L 868.43731 214.483579
L 975.739552 184.488694
" clip-path="url(#p1e89d684a9)" style="fill: none; stroke: #3b8bc2; stroke-width: 2; stroke-linecap: round"/>
    <g clip-path="url(#p1e89d684a9)">
     <use xlink:href="#m9fdc4eb408" x="546.530585" y="305.663745" style="fill: #3b8bc2; stroke: #3b8bc2"/>
     <use xlink:href="#m9fdc4eb408" x="653.832827" y="276.127017" style="fill: #3b8bc2; stroke: #3b8bc2"/>
     <use xlink:href="#m9fdc4eb408" x="761.135068" y="245.47527" style="fill: #3b8bc2; stroke: #3b8bc2"/>
     <use xlink:href="#m9fdc4eb408" x="868.43731" y="214.483579" style="fill: #3b8bc2; stroke: #3b8bc2"/>
     <use xlink:href="#m9fdc4eb408" x="975.739552" y="184.488694" style="fill: #3b8bc2; stroke: #3b8bc2"/>
    </g>
   </g>
   <g id="line2d_65">
    <path d="M 546.530585 293.455741
L 653.832827 251.146338
L 761.135068 208.767343
L 868.43731 166.626548
L 975.739552 124.387043
" clip-path="url(#p1e89d684a9)" style="fill: none; stroke: #1764ab; stroke-width: 2; stroke-linecap: round"/>
    <g clip-path="url(#p1e89d684a9)">
     <use xlink:href="#m93031f03eb" x="546.530585" y="293.455741" style="fill: #1764ab; stroke: #1764ab"/>
     <use xlink:href="#m93031f03eb" x="653.832827" y="251.146338" style="fill: #1764ab; stroke: #1764ab"/>
     <use xlink:href="#m93031f03eb" x="761.135068" y="208.767343" style="fill: #1764ab; stroke: #1764ab"/>
     <use xlink:href="#m93031f03eb" x="868.43731" y="166.626548" style="fill: #1764ab; stroke: #1764ab"/>
     <use xlink:href="#m93031f03eb" x="975.739552" y="124.387043" style="fill: #1764ab; stroke: #1764ab"/>
    </g>
   </g>
   <g id="line2d_66">
    <path d="M 546.530585 281.796901
L 653.832827 225.153494
L 761.135068 170.822953
L 868.43731 116.875444
L 975.739552 64.888911
" clip-path="url(#p1e89d684a9)" style="fill: none; stroke: #083c7d; stroke-width: 2; stroke-linecap: round"/>
    <g clip-path="url(#p1e89d684a9)">
     <use xlink:href="#m6473a55f58" x="546.530585" y="281.796901" style="fill: #083c7d; stroke: #083c7d"/>
     <use xlink:href="#m6473a55f58" x="653.832827" y="225.153494" style="fill: #083c7d; stroke: #083c7d"/>
     <use xlink:href="#m6473a55f58" x="761.135068" y="170.822953" style="fill: #083c7d; stroke: #083c7d"/>
     <use xlink:href="#m6473a55f58" x="868.43731" y="116.875444" style="fill: #083c7d; stroke: #083c7d"/>
     <use xlink:href="#m6473a55f58" x="975.739552" y="64.888911" style="fill: #083c7d; stroke: #083c7d"/>
    </g>
   </g>
   <g id="patch_8">
    <path d="M 525.070137 358.930469
L 525.070137 48.680684
" style="fill: none; stroke: #cccccc; stroke-linejoin: miter; stroke-linecap: square"/>
   </g>
   <g id="patch_9">
    <path d="M 997.2 358.930469
L 997.2 48.680684
" style="fill: none; stroke: #cccccc; stroke-linejoin: miter; stroke-linecap: square"/>
   </g>
   <g id="patch_10">
    <path d="M 525.070137 358.930469
L 997.2 358.930469
" style="fill: none; stroke: #cccccc; stroke-linejoin: miter; stroke-linecap: square"/>
   </g>
   <g id="patch_11">
    <path d="M 525.070137 48.680684
L 997.2 48.680684
" style="fill: none; stroke: #cccccc; stroke-linejoin: miter; stroke-linecap: square"/>
   </g>
   <g id="text_28">
    <!-- yamllint 1.38.0 -->
    <g style="fill: #262626" transform="translate(722.451006 42.680684) scale(0.12 -0.12)">
     <use xlink:href="#LiberationSans-5c"/>
     <use xlink:href="#LiberationSans-44" transform="translate(50 0)"/>
     <use xlink:href="#LiberationSans-50" transform="translate(105.609375 0)"/>
     <use xlink:href="#LiberationSans-4f" transform="translate(188.90625 0)"/>
     <use xlink:href="#LiberationSans-4f" transform="translate(211.125 0)"/>
     <use xlink:href="#LiberationSans-4c" transform="translate(233.34375 0)"/>
     <use xlink:href="#LiberationSans-51" transform="translate(255.5625 0)"/>
     <use xlink:href="#LiberationSans-57" transform="translate(311.171875 0)"/>
     <use xlink:href="#LiberationSans-3" transform="translate(338.953125 0)"/>
     <use xlink:href="#LiberationSans-14" transform="translate(366.734375 0)"/>
     <use xlink:href="#LiberationSans-11" transform="translate(422.34375 0)"/>
     <use xlink:href="#LiberationSans-16" transform="translate(450.125 0)"/>
     <use xlink:href="#LiberationSans-1b" transform="translate(505.734375 0)"/>
     <use xlink:href="#LiberationSans-11" transform="translate(561.34375 0)"/>
     <use xlink:href="#LiberationSans-13" transform="translate(589.125 0)"/>
    </g>
   </g>
   <g id="legend_1">
    <g id="text_29">
     <!-- File size -->
     <g style="fill: #262626" transform="translate(541.684199 64.960957) scale(0.1 -0.1)">
      <defs>
       <path id="LiberationSans-29" d="M 1122 3916
L 1122 2278
L 3578 2278
L 3578 1784
L 1122 1784
L 1122 0
L 525 0
L 525 4403
L 3653 4403
L 3653 3916
L 1122 3916
z
" transform="scale(0.015625)"/>
       <path id="LiberationSans-5d" d="M 259 0
L 259 428
L 2150 2947
L 366 2947
L 366 3381
L 2816 3381
L 2816 2953
L 922 434
L 2881 434
L 2881 0
L 259 0
z
" transform="scale(0.015625)"/>
      </defs>
      <use xlink:href="#LiberationSans-29"/>
      <use xlink:href="#LiberationSans-4c" transform="translate(61.078125 0)"/>
      <use xlink:href="#LiberationSans-4f" transform="translate(83.296875 0)"/>
      <use xlink:href="#LiberationSans-48" transform="translate(105.515625 0)"/>
      <use xlink:href="#LiberationSans-3" transform="translate(161.125 0)"/>
      <use xlink:href="#LiberationSans-56" transform="translate(188.90625 0)"/>
      <use xlink:href="#LiberationSans-4c" transform="translate(238.90625 0)"/>
      <use xlink:href="#LiberationSans-5d" transform="translate(261.125 0)"/>
      <use xlink:href="#LiberationSans-48" transform="translate(311.125 0)"/>
     </g>
    </g>
    <g id="line2d_67">
     <path d="M 534.070137 75.845723
L 544.070137 75.845723
L 554.070137 75.845723
" style="fill: none; stroke: #a6cee4; stroke-width: 2; stroke-linecap: round"/>
     <g>
      <use xlink:href="#m4803c2e0b2" x="544.070137" y="75.845723" style="fill: #a6cee4; stroke: #a6cee4"/>
     </g>
    </g>
    <g id="text_30">
     <!-- 1 KiB -->
     <g style="fill: #262626" transform="translate(562.070137 79.345723) scale(0.1 -0.1)">
      <defs>
       <path id="LiberationSans-2e" d="M 3456 0
L 1697 2125
L 1122 1688
L 1122 0
L 525 0
L 525 4403
L 1122 4403
L 1122 2197
L 3244 4403
L 3947 4403
L 2072 2491
L 4197 0
L 3456 0
z
" transform="scale(0.015625)"/>
       <path id="LiberationSans-25" d="M 3931 1241
Q 3931 653 3503 326
Q 3075 0 2313 0
L 525 0
L 525 4403
L 2125 4403
Q 3675 4403 3675 3334
Q 3675 2944 3456 2678
Q 3238 2413 2838 2322
Q 3363 2259 3647 1970
Q 3931 1681 3931 1241
z
M 3075 3263
Q 3075 3619 2831 3772
Q 2588 3925 2125 3925
L 1122 3925
L 1122 2531
L 2125 2531
Q 2603 2531 2839 2711
Q 3075 2891 3075 3263
z
M 3328 1288
Q 3328 2066 2234 2066
L 1122 2066
L 1122 478
L 2281 478
Q 2828 478 3078 681
Q 3328 884 3328 1288
z
" transform="scale(0.015625)"/>
      </defs>
      <use xlink:href="#LiberationSans-14"/>
      <use xlink:href="#LiberationSans-3" transform="translate(55.609375 0)"/>
      <use xlink:href="#LiberationSans-2e" transform="translate(83.390625 0)"/>
      <use xlink:href="#LiberationSans-4c" transform="translate(150.09375 0)"/>
      <use xlink:href="#LiberationSans-25" transform="translate(172.3125 0)"/>
     </g>
    </g>
    <g id="line2d_68">
     <path d="M 534.070137 90.230488
L 544.070137 90.230488
L 554.070137 90.230488
" style="fill: none; stroke: #6aaed6; stroke-width: 2; stroke-linecap: round"/>
     <g>
      <use xlink:href="#mcf2226921e" x="544.070137" y="90.230488" style="fill: #6aaed6; stroke: #6aaed6"/>
     </g>
    </g>
    <g id="text_31">
     <!-- 3 KiB -->
     <g style="fill: #262626" transform="translate(562.070137 93.730488) scale(0.1 -0.1)">
      <use xlink:href="#LiberationSans-16"/>
      <use xlink:href="#LiberationSans-3" transform="translate(55.609375 0)"/>
      <use xlink:href="#LiberationSans-2e" transform="translate(83.390625 0)"/>
      <use xlink:href="#LiberationSans-4c" transform="translate(150.09375 0)"/>
      <use xlink:href="#LiberationSans-25" transform="translate(172.3125 0)"/>
     </g>
    </g>
    <g id="line2d_69">
     <path d="M 534.070137 104.615254
L 544.070137 104.615254
L 554.070137 104.615254
" style="fill: none; stroke: #3b8bc2; stroke-width: 2; stroke-linecap: round"/>
     <g>
      <use xlink:href="#m9fdc4eb408" x="544.070137" y="104.615254" style="fill: #3b8bc2; stroke: #3b8bc2"/>
     </g>
    </g>
    <g id="text_32">
     <!-- 5 KiB -->
     <g style="fill: #262626" transform="translate(562.070137 108.115254) scale(0.1 -0.1)">
      <use xlink:href="#LiberationSans-18"/>
      <use xlink:href="#LiberationSans-3" transform="translate(55.609375 0)"/>
      <use xlink:href="#LiberationSans-2e" transform="translate(83.390625 0)"/>
      <use xlink:href="#LiberationSans-4c" transform="translate(150.09375 0)"/>
      <use xlink:href="#LiberationSans-25" transform="translate(172.3125 0)"/>
     </g>
    </g>
    <g id="line2d_70">
     <path d="M 534.070137 119.00002
L 544.070137 119.00002
L 554.070137 119.00002
" style="fill: none; stroke: #1764ab; stroke-width: 2; stroke-linecap: round"/>
     <g>
      <use xlink:href="#m93031f03eb" x="544.070137" y="119.00002" style="fill: #1764ab; stroke: #1764ab"/>
     </g>
    </g>
    <g id="text_33">
     <!-- 7 KiB -->
     <g style="fill: #262626" transform="translate(562.070137 122.50002) scale(0.1 -0.1)">
      <use xlink:href="#LiberationSans-1a"/>
      <use xlink:href="#LiberationSans-3" transform="translate(55.609375 0)"/>
      <use xlink:href="#LiberationSans-2e" transform="translate(83.390625 0)"/>
      <use xlink:href="#LiberationSans-4c" transform="translate(150.09375 0)"/>
      <use xlink:href="#LiberationSans-25" transform="translate(172.3125 0)"/>
     </g>
    </g>
    <g id="line2d_71">
     <path d="M 534.070137 133.384785
L 544.070137 133.384785
L 554.070137 133.384785
" style="fill: none; stroke: #083c7d; stroke-width: 2; stroke-linecap: round"/>
     <g>
      <use xlink:href="#m6473a55f58" x="544.070137" y="133.384785" style="fill: #083c7d; stroke: #083c7d"/>
     </g>
    </g>
    <g id="text_34">
     <!-- 9 KiB -->
     <g style="fill: #262626" transform="translate(562.070137 136.884785) scale(0.1 -0.1)">
      <use xlink:href="#LiberationSans-1c"/>
      <use xlink:href="#LiberationSans-3" transform="translate(55.609375 0)"/>
      <use xlink:href="#LiberationSans-2e" transform="translate(83.390625 0)"/>
      <use xlink:href="#LiberationSans-4c" transform="translate(150.09375 0)"/>
      <use xlink:href="#LiberationSans-25" transform="translate(172.3125 0)"/>
     </g>
    </g>
   </g>
  </g>
  <g id="text_35">
   <!-- ryl vs yamllint (hyperfine, 5 runs per point) -->
   <g style="fill: #262626" transform="translate(383.351875 17.384355) scale(0.13 -0.13)">
    <defs>
     <path id="LiberationSans-59" d="M 1916 0
L 1250 0
L 22 3381
L 622 3381
L 1366 1181
Q 1406 1056 1581 441
L 1691 806
L 1813 1175
L 2581 3381
L 3178 3381
L 1916 0
z
" transform="scale(0.015625)"/>
     <path id="LiberationSans-4b" d="M 991 2803
Q 1172 3134 1426 3289
Q 1681 3444 2072 3444
Q 2622 3444 2883 3170
Q 3144 2897 3144 2253
L 3144 0
L 2578 0
L 2578 2144
Q 2578 2500 2512 2673
Q 2447 2847 2297 2928
Q 2147 3009 1881 3009
Q 1484 3009 1245 2734
Q 1006 2459 1006 1994
L 1006 0
L 444 0
L 444 4638
L 1006 4638
L 1006 3431
Q 1006 3241 995 3037
Q 984 2834 981 2803
L 991 2803
z
" transform="scale(0.015625)"/>
     <path id="LiberationSans-53" d="M 3291 1706
Q 3291 -63 2047 -63
Q 1266 -63 997 525
L 981 525
Q 994 500 994 -6
L 994 -1328
L 431 -1328
L 431 2691
Q 431 3213 413 3381
L 956 3381
Q 959 3369 965 3292
Q 972 3216 980 3056
Q 988 2897 988 2838
L 1000 2838
Q 1150 3150 1397 3295
Q 1644 3441 2047 3441
Q 2672 3441 2981 3022
Q 3291 2603 3291 1706
z
M 2700 1694
Q 2700 2400 2509 2703
Q 2319 3006 1903 3006
Q 1569 3006 1380 2865
Q 1191 2725 1092 2426
Q 994 2128 994 1650
Q 994 984 1206 668
Q 1419 353 1897 353
Q 2316 353 2508 661
Q 2700 969 2700 1694
z
" transform="scale(0.015625)"/>
     <path id="LiberationSans-f" d="M 1203 684
L 1203 159
Q 1203 -172 1143 -394
Q 1084 -616 959 -819
L 575 -819
Q 869 -394 869 0
L 594 0
L 594 684
L 1203 684
z
" transform="scale(0.015625)"/>
    </defs>
    <use xlink:href="#LiberationSans-55"/>
    <use xlink:href="#LiberationSans-5c" transform="translate(33.296875 0)"/>
    <use xlink:href="#LiberationSans-4f" transform="translate(83.296875 0)"/>
    <use xlink:href="#LiberationSans-3" transform="translate(105.515625 0)"/>
    <use xlink:href="#LiberationSans-59" transform="translate(133.296875 0)"/>
    <use xlink:href="#LiberationSans-56" transform="translate(183.296875 0)"/>
    <use xlink:href="#LiberationSans-3" transform="translate(233.296875 0)"/>
    <use xlink:href="#LiberationSans-5c" transform="translate(261.078125 0)"/>
    <use xlink:href="#LiberationSans-44" transform="translate(311.078125 0)"/>
    <use xlink:href="#LiberationSans-50" transform="translate(366.6875 0)"/>
    <use xlink:href="#LiberationSans-4f" transform="translate(449.984375 0)"/>
    <use xlink:href="#LiberationSans-4f" transform="translate(472.203125 0)"/>
    <use xlink:href="#LiberationSans-4c" transform="translate(494.421875 0)"/>
    <use xlink:href="#LiberationSans-51" transform="translate(516.640625 0)"/>
    <use xlink:href="#LiberationSans-57" transform="translate(572.25 0)"/>
    <use xlink:href="#LiberationSans-3" transform="translate(600.03125 0)"/>
    <use xlink:href="#LiberationSans-b" transform="translate(627.8125 0)"/>
    <use xlink:href="#LiberationSans-4b" transform="translate(661.109375 0)"/>
    <use xlink:href="#LiberationSans-5c" transform="translate(716.71875 0)"/>
    <use xlink:href="#LiberationSans-53" transform="translate(766.71875 0)"/>
    <use xlink:href="#LiberationSans-48" transform="translate(822.328125 0)"/>
    <use xlink:href="#LiberationSans-55" transform="translate(877.9375 0)"/>
    <use xlink:href="#LiberationSans-49" transform="translate(911.234375 0)"/>
    <use xlink:href="#LiberationSans-4c" transform="translate(939.015625 0)"/>
    <use xlink:href="#LiberationSans-51" transform="translate(961.234375 0)"/>
    <use xlink:href="#LiberationSans-48" transform="translate(1016.84375 0)"/>
    <use xlink:href="#LiberationSans-f" transform="translate(1072.453125 0)"/>
    <use xlink:href="#LiberationSans-3" transform="translate(1100.234375 0)"/>
    <use xlink:href="#LiberationSans-18" transform="translate(1128.015625 0)"/>
    <use xlink:href="#LiberationSans-3" transform="translate(1183.625 0)"/>
    <use xlink:href="#LiberationSans-55" transform="translate(1211.40625 0)"/>
    <use xlink:href="#LiberationSans-58" transform="translate(1244.703125 0)"/>
    <use xlink:href="#LiberationSans-51" transform="translate(1300.3125 0)"/>
    <use xlink:href="#LiberationSans-56" transform="translate(1355.921875 0)"/>
    <use xlink:href="#LiberationSans-3" transform="translate(1405.921875 0)"/>
    <use xlink:href="#LiberationSans-53" transform="translate(1433.703125 0)"/>
    <use xlink:href="#LiberationSans-48" transform="translate(1489.3125 0)"/>
    <use xlink:href="#LiberationSans-55" transform="translate(1544.921875 0)"/>
    <use xlink:href="#LiberationSans-3" transform="translate(1578.21875 0)"/>
    <use xlink:href="#LiberationSans-53" transform="translate(1606 0)"/>
    <use xlink:href="#LiberationSans-52" transform="translate(1661.609375 0)"/>
    <use xlink:href="#LiberationSans-4c" transform="translate(1717.21875 0)"/>
    <use xlink:href="#LiberationSans-51" transform="translate(1739.4375 0)"/>
    <use xlink:href="#LiberationSans-57" transform="translate(1795.046875 0)"/>
    <use xlink:href="#LiberationSans-c" transform="translate(1822.828125 0)"/>
   </g>
  </g>
 </g>
 <defs>
  <clipPath id="p0a91b32804">
   <rect x="42.140273" y="48.680684" width="472.129863" height="310.249785"/>
  </clipPath>
  <clipPath id="p1e89d684a9">
   <rect x="525.070137" y="48.680684" width="472.129863" height="310.249785"/>
  </clipPath>
 </defs>
</svg>
