<?xml version="1.0" encoding="utf-8" standalone="no"?>
<!DOCTYPE svg PUBLIC "-//W3C//DTD SVG 1.1//EN"
  "http://www.w3.org/Graphics/SVG/1.1/DTD/svg11.dtd">
<svg xmlns:xlink="http://www.w3.org/1999/xlink" width="1008pt" height="396pt" viewBox="0 0 1008 396" xmlns="http://www.w3.org/2000/svg" version="1.1">
 <metadata>
  <rdf:RDF xmlns:dc="http://purl.org/dc/elements/1.1/" xmlns:cc="http://creativecommons.org/ns#" xmlns:rdf="http://www.w3.org/1999/02/22-rdf-syntax-ns#">
   <cc:Work>
    <dc:type rdf:resource="http://purl.org/dc/dcmitype/StillImage"/>
    <dc:date>2026-06-17T00:17:32.399903</dc:date>
    <dc:format>image/svg+xml</dc:format>
    <dc:creator>
     <cc:Agent>
      <dc:title>Matplotlib v3.10.9, https://matplotlib.org/</dc:title>
     </cc:Agent>
    </dc:creator>
   </cc:Work>
  </rdf:RDF>
 </metadata>
 <defs>
  <style type="text/css">*{stroke-linejoin: round; stroke-linecap: butt}</style>
 </defs>
 <g id="figure_1">
  <g id="patch_1">
   <path d="M 0 396
L 1008 396
L 1008 0
L 0 0
z
" style="fill: #ffffff"/>
  </g>
  <g id="axes_1">
   <g id="patch_2">
    <path d="M 44.22 357.54
L 515.31 357.54
L 515.31 50.64
L 44.22 50.64
z
" style="fill: #ffffff"/>
   </g>
   <g id="matplotlib.axis_1">
    <g id="xtick_1">
     <g id="line2d_1">
      <path d="M 65.633182 357.54
L 65.633182 50.64
" clip-path="url(#p277b402921)" style="fill: none; stroke: #cccccc; stroke-width: 0.8; stroke-linecap: round"/>
     </g>
     <g id="line2d_2"/>
     <g id="text_1">
      <!-- 20 -->
      <g style="fill: #262626" transform="translate(59.270682 368.638438) scale(0.1 -0.1)">
       <defs>
        <path id="DejaVuSans-32" d="M 1228 531
L 3431 531
L 3431 0
L 469 0
L 469 531
Q 828 903 1448 1529
Q 2069 2156 2228 2338
Q 2531 2678 2651 2914
Q 2772 3150 2772 3378
Q 2772 3750 2511 3984
Q 2250 4219 1831 4219
Q 1534 4219 1204 4116
Q 875 4013 500 3803
L 500 4441
Q 881 4594 1212 4672
Q 1544 4750 1819 4750
Q 2544 4750 2975 4387
Q 3406 4025 3406 3419
Q 3406 3131 3298 2873
Q 3191 2616 2906 2266
Q 2828 2175 2409 1742
Q 1991 1309 1228 531
z
" transform="scale(0.015625)"/>
        <path id="DejaVuSans-30" d="M 2034 4250
Q 1547 4250 1301 3770
Q 1056 3291 1056 2328
Q 1056 1369 1301 889
Q 1547 409 2034 409
Q 2525 409 2770 889
Q 3016 1369 3016 2328
Q 3016 3291 2770 3770
Q 2525 4250 2034 4250
z
M 2034 4750
Q 2819 4750 3233 4129
Q 3647 3509 3647 2328
Q 3647 1150 3233 529
Q 2819 -91 2034 -91
Q 1250 -91 836 529
Q 422 1150 422 2328
Q 422 3509 836 4129
Q 1250 4750 2034 4750
z
" transform="scale(0.015625)"/>
       </defs>
       <use xlink:href="#DejaVuSans-32"/>
       <use xlink:href="#DejaVuSans-30" transform="translate(63.623047 0)"/>
      </g>
     </g>
    </g>
    <g id="xtick_2">
     <g id="line2d_3">
      <path d="M 119.166136 357.54
L 119.166136 50.64
" clip-path="url(#p277b402921)" style="fill: none; stroke: #cccccc; stroke-width: 0.8; stroke-linecap: round"/>
     </g>
     <g id="line2d_4"/>
     <g id="text_2">
      <!-- 30 -->
      <g style="fill: #262626" transform="translate(112.803636 368.638438) scale(0.1 -0.1)">
       <defs>
        <path id="DejaVuSans-33" d="M 2597 2516
Q 3050 2419 3304 2112
Q 3559 1806 3559 1356
Q 3559 666 3084 287
Q 2609 -91 1734 -91
Q 1441 -91 1130 -33
Q 819 25 488 141
L 488 750
Q 750 597 1062 519
Q 1375 441 1716 441
Q 2309 441 2620 675
Q 2931 909 2931 1356
Q 2931 1769 2642 2001
Q 2353 2234 1838 2234
L 1294 2234
L 1294 2753
L 1863 2753
Q 2328 2753 2575 2939
Q 2822 3125 2822 3475
Q 2822 3834 2567 4026
Q 2313 4219 1838 4219
Q 1578 4219 1281 4162
Q 984 4106 628 3988
L 628 4550
Q 988 4650 1302 4700
Q 1616 4750 1894 4750
Q 2613 4750 3031 4423
Q 3450 4097 3450 3541
Q 3450 3153 3228 2886
Q 3006 2619 2597 2516
z
" transform="scale(0.015625)"/>
       </defs>
       <use xlink:href="#DejaVuSans-33"/>
       <use xlink:href="#DejaVuSans-30" transform="translate(63.623047 0)"/>
      </g>
     </g>
    </g>
    <g id="xtick_3">
     <g id="line2d_5">
      <path d="M 172.699091 357.54
L 172.699091 50.64
" clip-path="url(#p277b402921)" style="fill: none; stroke: #cccccc; stroke-width: 0.8; stroke-linecap: round"/>
     </g>
     <g id="line2d_6"/>
     <g id="text_3">
      <!-- 40 -->
      <g style="fill: #262626" transform="translate(166.336591 368.638438) scale(0.1 -0.1)">
       <defs>
        <path id="DejaVuSans-34" d="M 2419 4116
L 825 1625
L 2419 1625
L 2419 4116
z
M 2253 4666
L 3047 4666
L 3047 1625
L 3713 1625
L 3713 1100
L 3047 1100
L 3047 0
L 2419 0
L 2419 1100
L 313 1100
L 313 1709
L 2253 4666
z
" transform="scale(0.015625)"/>
       </defs>
       <use xlink:href="#DejaVuSans-34"/>
       <use xlink:href="#DejaVuSans-30" transform="translate(63.623047 0)"/>
      </g>
     </g>
    </g>
    <g id="xtick_4">
     <g id="line2d_7">
      <path d="M 226.232045 357.54
L 226.232045 50.64
" clip-path="url(#p277b402921)" style="fill: none; stroke: #cccccc; stroke-width: 0.8; stroke-linecap: round"/>
     </g>
     <g id="line2d_8"/>
     <g id="text_4">
      <!-- 50 -->
      <g style="fill: #262626" transform="translate(219.869545 368.638438) scale(0.1 -0.1)">
       <defs>
        <path id="DejaVuSans-35" d="M 691 4666
L 3169 4666
L 3169 4134
L 1269 4134
L 1269 2991
Q 1406 3038 1543 3061
Q 1681 3084 1819 3084
Q 2600 3084 3056 2656
Q 3513 2228 3513 1497
Q 3513 744 3044 326
Q 2575 -91 1722 -91
Q 1428 -91 1123 -41
Q 819 9 494 109
L 494 744
Q 775 591 1075 516
Q 1375 441 1709 441
Q 2250 441 2565 725
Q 2881 1009 2881 1497
Q 2881 1984 2565 2268
Q 2250 2553 1709 2553
Q 1456 2553 1204 2497
Q 953 2441 691 2322
L 691 4666
z
" transform="scale(0.015625)"/>
       </defs>
       <use xlink:href="#DejaVuSans-35"/>
       <use xlink:href="#DejaVuSans-30" transform="translate(63.623047 0)"/>
      </g>
     </g>
    </g>
    <g id="xtick_5">
     <g id="line2d_9">
      <path d="M 279.765 357.54
L 279.765 50.64
" clip-path="url(#p277b402921)" style="fill: none; stroke: #cccccc; stroke-width: 0.8; stroke-linecap: round"/>
     </g>
     <g id="line2d_10"/>
     <g id="text_5">
      <!-- 60 -->
      <g style="fill: #262626" transform="translate(273.4025 368.638438) scale(0.1 -0.1)">
       <defs>
        <path id="DejaVuSans-36" d="M 2113 2584
Q 1688 2584 1439 2293
Q 1191 2003 1191 1497
Q 1191 994 1439 701
Q 1688 409 2113 409
Q 2538 409 2786 701
Q 3034 994 3034 1497
Q 3034 2003 2786 2293
Q 2538 2584 2113 2584
z
M 3366 4563
L 3366 3988
Q 3128 4100 2886 4159
Q 2644 4219 2406 4219
Q 1781 4219 1451 3797
Q 1122 3375 1075 2522
Q 1259 2794 1537 2939
Q 1816 3084 2150 3084
Q 2853 3084 3261 2657
Q 3669 2231 3669 1497
Q 3669 778 3244 343
Q 2819 -91 2113 -91
Q 1303 -91 875 529
Q 447 1150 447 2328
Q 447 3434 972 4092
Q 1497 4750 2381 4750
Q 2619 4750 2861 4703
Q 3103 4656 3366 4563
z
" transform="scale(0.015625)"/>
       </defs>
       <use xlink:href="#DejaVuSans-36"/>
       <use xlink:href="#DejaVuSans-30" transform="translate(63.623047 0)"/>
      </g>
     </g>
    </g>
    <g id="xtick_6">
     <g id="line2d_11">
      <path d="M 333.297955 357.54
L 333.297955 50.64
" clip-path="url(#p277b402921)" style="fill: none; stroke: #cccccc; stroke-width: 0.8; stroke-linecap: round"/>
     </g>
     <g id="line2d_12"/>
     <g id="text_6">
      <!-- 70 -->
      <g style="fill: #262626" transform="translate(326.935455 368.638438) scale(0.1 -0.1)">
       <defs>
        <path id="DejaVuSans-37" d="M 525 4666
L 3525 4666
L 3525 4397
L 1831 0
L 1172 0
L 2766 4134
L 525 4134
L 525 4666
z
" transform="scale(0.015625)"/>
       </defs>
       <use xlink:href="#DejaVuSans-37"/>
       <use xlink:href="#DejaVuSans-30" transform="translate(63.623047 0)"/>
      </g>
     </g>
    </g>
    <g id="xtick_7">
     <g id="line2d_13">
      <path d="M 386.830909 357.54
L 386.830909 50.64
" clip-path="url(#p277b402921)" style="fill: none; stroke: #cccccc; stroke-width: 0.8; stroke-linecap: round"/>
     </g>
     <g id="line2d_14"/>
     <g id="text_7">
      <!-- 80 -->
      <g style="fill: #262626" transform="translate(380.468409 368.638438) scale(0.1 -0.1)">
       <defs>
        <path id="DejaVuSans-38" d="M 2034 2216
Q 1584 2216 1326 1975
Q 1069 1734 1069 1313
Q 1069 891 1326 650
Q 1584 409 2034 409
Q 2484 409 2743 651
Q 3003 894 3003 1313
Q 3003 1734 2745 1975
Q 2488 2216 2034 2216
z
M 1403 2484
Q 997 2584 770 2862
Q 544 3141 544 3541
Q 544 4100 942 4425
Q 1341 4750 2034 4750
Q 2731 4750 3128 4425
Q 3525 4100 3525 3541
Q 3525 3141 3298 2862
Q 3072 2584 2669 2484
Q 3125 2378 3379 2068
Q 3634 1759 3634 1313
Q 3634 634 3220 271
Q 2806 -91 2034 -91
Q 1263 -91 848 271
Q 434 634 434 1313
Q 434 1759 690 2068
Q 947 2378 1403 2484
z
M 1172 3481
Q 1172 3119 1398 2916
Q 1625 2713 2034 2713
Q 2441 2713 2670 2916
Q 2900 3119 2900 3481
Q 2900 3844 2670 4047
Q 2441 4250 2034 4250
Q 1625 4250 1398 4047
Q 1172 3844 1172 3481
z
" transform="scale(0.015625)"/>
       </defs>
       <use xlink:href="#DejaVuSans-38"/>
       <use xlink:href="#DejaVuSans-30" transform="translate(63.623047 0)"/>
      </g>
     </g>
    </g>
    <g id="xtick_8">
     <g id="line2d_15">
      <path d="M 440.363864 357.54
L 440.363864 50.64
" clip-path="url(#p277b402921)" style="fill: none; stroke: #cccccc; stroke-width: 0.8; stroke-linecap: round"/>
     </g>
     <g id="line2d_16"/>
     <g id="text_8">
      <!-- 90 -->
      <g style="fill: #262626" transform="translate(434.001364 368.638438) scale(0.1 -0.1)">
       <defs>
        <path id="DejaVuSans-39" d="M 703 97
L 703 672
Q 941 559 1184 500
Q 1428 441 1663 441
Q 2288 441 2617 861
Q 2947 1281 2994 2138
Q 2813 1869 2534 1725
Q 2256 1581 1919 1581
Q 1219 1581 811 2004
Q 403 2428 403 3163
Q 403 3881 828 4315
Q 1253 4750 1959 4750
Q 2769 4750 3195 4129
Q 3622 3509 3622 2328
Q 3622 1225 3098 567
Q 2575 -91 1691 -91
Q 1453 -91 1209 -44
Q 966 3 703 97
z
M 1959 2075
Q 2384 2075 2632 2365
Q 2881 2656 2881 3163
Q 2881 3666 2632 3958
Q 2384 4250 1959 4250
Q 1534 4250 1286 3958
Q 1038 3666 1038 3163
Q 1038 2656 1286 2365
Q 1534 2075 1959 2075
z
" transform="scale(0.015625)"/>
       </defs>
       <use xlink:href="#DejaVuSans-39"/>
       <use xlink:href="#DejaVuSans-30" transform="translate(63.623047 0)"/>
      </g>
     </g>
    </g>
    <g id="xtick_9">
     <g id="line2d_17">
      <path d="M 493.896818 357.54
L 493.896818 50.64
" clip-path="url(#p277b402921)" style="fill: none; stroke: #cccccc; stroke-width: 0.8; stroke-linecap: round"/>
     </g>
     <g id="line2d_18"/>
     <g id="text_9">
      <!-- 100 -->
      <g style="fill: #262626" transform="translate(484.353068 368.638438) scale(0.1 -0.1)">
       <defs>
        <path id="DejaVuSans-31" d="M 794 531
L 1825 531
L 1825 4091
L 703 3866
L 703 4441
L 1819 4666
L 2450 4666
L 2450 531
L 3481 531
L 3481 0
L 794 0
L 794 531
z
" transform="scale(0.015625)"/>
       </defs>
       <use xlink:href="#DejaVuSans-31"/>
       <use xlink:href="#DejaVuSans-30" transform="translate(63.623047 0)"/>
       <use xlink:href="#DejaVuSans-30" transform="translate(127.246094 0)"/>
      </g>
     </g>
    </g>
    <g id="text_10">
     <!-- Number of YAML files -->
     <g style="fill: #262626" transform="translate(226.686094 382.316562) scale(0.1 -0.1)">
      <defs>
       <path id="DejaVuSans-4e" d="M 628 4666
L 1478 4666
L 3547 763
L 3547 4666
L 4159 4666
L 4159 0
L 3309 0
L 1241 3903
L 1241 0
L 628 0
L 628 4666
z
" transform="scale(0.015625)"/>
       <path id="DejaVuSans-75" d="M 544 1381
L 544 3500
L 1119 3500
L 1119 1403
Q 1119 906 1312 657
Q 1506 409 1894 409
Q 2359 409 2629 706
Q 2900 1003 2900 1516
L 2900 3500
L 3475 3500
L 3475 0
L 2900 0
L 2900 538
Q 2691 219 2414 64
Q 2138 -91 1772 -91
Q 1169 -91 856 284
Q 544 659 544 1381
z
M 1991 3584
L 1991 3584
z
" transform="scale(0.015625)"/>
       <path id="DejaVuSans-6d" d="M 3328 2828
Q 3544 3216 3844 3400
Q 4144 3584 4550 3584
Q 5097 3584 5394 3201
Q 5691 2819 5691 2113
L 5691 0
L 5113 0
L 5113 2094
Q 5113 2597 4934 2840
Q 4756 3084 4391 3084
Q 3944 3084 3684 2787
Q 3425 2491 3425 1978
L 3425 0
L 2847 0
L 2847 2094
Q 2847 2600 2669 2842
Q 2491 3084 2119 3084
Q 1678 3084 1418 2786
Q 1159 2488 1159 1978
L 1159 0
L 581 0
L 581 3500
L 1159 3500
L 1159 2956
Q 1356 3278 1631 3431
Q 1906 3584 2284 3584
Q 2666 3584 2933 3390
Q 3200 3197 3328 2828
z
" transform="scale(0.015625)"/>
       <path id="DejaVuSans-62" d="M 3116 1747
Q 3116 2381 2855 2742
Q 2594 3103 2138 3103
Q 1681 3103 1420 2742
Q 1159 2381 1159 1747
Q 1159 1113 1420 752
Q 1681 391 2138 391
Q 2594 391 2855 752
Q 3116 1113 3116 1747
z
M 1159 2969
Q 1341 3281 1617 3432
Q 1894 3584 2278 3584
Q 2916 3584 3314 3078
Q 3713 2572 3713 1747
Q 3713 922 3314 415
Q 2916 -91 2278 -91
Q 1894 -91 1617 61
Q 1341 213 1159 525
L 1159 0
L 581 0
L 581 4863
L 1159 4863
L 1159 2969
z
" transform="scale(0.015625)"/>
       <path id="DejaVuSans-65" d="M 3597 1894
L 3597 1613
L 953 1613
Q 991 1019 1311 708
Q 1631 397 2203 397
Q 2534 397 2845 478
Q 3156 559 3463 722
L 3463 178
Q 3153 47 2828 -22
Q 2503 -91 2169 -91
Q 1331 -91 842 396
Q 353 884 353 1716
Q 353 2575 817 3079
Q 1281 3584 2069 3584
Q 2775 3584 3186 3129
Q 3597 2675 3597 1894
z
M 3022 2063
Q 3016 2534 2758 2815
Q 2500 3097 2075 3097
Q 1594 3097 1305 2825
Q 1016 2553 972 2059
L 3022 2063
z
" transform="scale(0.015625)"/>
       <path id="DejaVuSans-72" d="M 2631 2963
Q 2534 3019 2420 3045
Q 2306 3072 2169 3072
Q 1681 3072 1420 2755
Q 1159 2438 1159 1844
L 1159 0
L 581 0
L 581 3500
L 1159 3500
L 1159 2956
Q 1341 3275 1631 3429
Q 1922 3584 2338 3584
Q 2397 3584 2469 3576
Q 2541 3569 2628 3553
L 2631 2963
z
" transform="scale(0.015625)"/>
       <path id="DejaVuSans-20" transform="scale(0.015625)"/>
       <path id="DejaVuSans-6f" d="M 1959 3097
Q 1497 3097 1228 2736
Q 959 2375 959 1747
Q 959 1119 1226 758
Q 1494 397 1959 397
Q 2419 397 2687 759
Q 2956 1122 2956 1747
Q 2956 2369 2687 2733
Q 2419 3097 1959 3097
z
M 1959 3584
Q 2709 3584 3137 3096
Q 3566 2609 3566 1747
Q 3566 888 3137 398
Q 2709 -91 1959 -91
Q 1206 -91 779 398
Q 353 888 353 1747
Q 353 2609 779 3096
Q 1206 3584 1959 3584
z
" transform="scale(0.015625)"/>
       <path id="DejaVuSans-66" d="M 2375 4863
L 2375 4384
L 1825 4384
Q 1516 4384 1395 4259
Q 1275 4134 1275 3809
L 1275 3500
L 2222 3500
L 2222 3053
L 1275 3053
L 1275 0
L 697 0
L 697 3053
L 147 3053
L 147 3500
L 697 3500
L 697 3744
Q 697 4328 969 4595
Q 1241 4863 1831 4863
L 2375 4863
z
" transform="scale(0.015625)"/>
       <path id="DejaVuSans-59" d="M -13 4666
L 666 4666
L 1959 2747
L 3244 4666
L 3922 4666
L 2272 2222
L 2272 0
L 1638 0
L 1638 2222
L -13 4666
z
" transform="scale(0.015625)"/>
       <path id="DejaVuSans-41" d="M 2188 4044
L 1331 1722
L 3047 1722
L 2188 4044
z
M 1831 4666
L 2547 4666
L 4325 0
L 3669 0
L 3244 1197
L 1141 1197
L 716 0
L 50 0
L 1831 4666
z
" transform="scale(0.015625)"/>
       <path id="DejaVuSans-4d" d="M 628 4666
L 1569 4666
L 2759 1491
L 3956 4666
L 4897 4666
L 4897 0
L 4281 0
L 4281 4097
L 3078 897
L 2444 897
L 1241 4097
L 1241 0
L 628 0
L 628 4666
z
" transform="scale(0.015625)"/>
       <path id="DejaVuSans-4c" d="M 628 4666
L 1259 4666
L 1259 531
L 3531 531
L 3531 0
L 628 0
L 628 4666
z
" transform="scale(0.015625)"/>
       <path id="DejaVuSans-69" d="M 603 3500
L 1178 3500
L 1178 0
L 603 0
L 603 3500
z
M 603 4863
L 1178 4863
L 1178 4134
L 603 4134
L 603 4863
z
" transform="scale(0.015625)"/>
       <path id="DejaVuSans-6c" d="M 603 4863
L 1178 4863
L 1178 0
L 603 0
L 603 4863
z
" transform="scale(0.015625)"/>
       <path id="DejaVuSans-73" d="M 2834 3397
L 2834 2853
Q 2591 2978 2328 3040
Q 2066 3103 1784 3103
Q 1356 3103 1142 2972
Q 928 2841 928 2578
Q 928 2378 1081 2264
Q 1234 2150 1697 2047
L 1894 2003
Q 2506 1872 2764 1633
Q 3022 1394 3022 966
Q 3022 478 2636 193
Q 2250 -91 1575 -91
Q 1294 -91 989 -36
Q 684 19 347 128
L 347 722
Q 666 556 975 473
Q 1284 391 1588 391
Q 1994 391 2212 530
Q 2431 669 2431 922
Q 2431 1156 2273 1281
Q 2116 1406 1581 1522
L 1381 1569
Q 847 1681 609 1914
Q 372 2147 372 2553
Q 372 3047 722 3315
Q 1072 3584 1716 3584
Q 2034 3584 2315 3537
Q 2597 3491 2834 3397
z
" transform="scale(0.015625)"/>
      </defs>
      <use xlink:href="#DejaVuSans-4e"/>
      <use xlink:href="#DejaVuSans-75" transform="translate(74.804688 0)"/>
      <use xlink:href="#DejaVuSans-6d" transform="translate(138.183594 0)"/>
      <use xlink:href="#DejaVuSans-62" transform="translate(235.595703 0)"/>
      <use xlink:href="#DejaVuSans-65" transform="translate(299.072266 0)"/>
      <use xlink:href="#DejaVuSans-72" transform="translate(360.595703 0)"/>
      <use xlink:href="#DejaVuSans-20" transform="translate(401.708984 0)"/>
      <use xlink:href="#DejaVuSans-6f" transform="translate(433.496094 0)"/>
      <use xlink:href="#DejaVuSans-66" transform="translate(494.677734 0)"/>
      <use xlink:href="#DejaVuSans-20" transform="translate(529.882812 0)"/>
      <use xlink:href="#DejaVuSans-59" transform="translate(561.669922 0)"/>
      <use xlink:href="#DejaVuSans-41" transform="translate(615.003906 0)"/>
      <use xlink:href="#DejaVuSans-4d" transform="translate(683.412109 0)"/>
      <use xlink:href="#DejaVuSans-4c" transform="translate(769.691406 0)"/>
      <use xlink:href="#DejaVuSans-20" transform="translate(825.404297 0)"/>
      <use xlink:href="#DejaVuSans-66" transform="translate(857.191406 0)"/>
      <use xlink:href="#DejaVuSans-69" transform="translate(892.396484 0)"/>
      <use xlink:href="#DejaVuSans-6c" transform="translate(920.179688 0)"/>
      <use xlink:href="#DejaVuSans-65" transform="translate(947.962891 0)"/>
      <use xlink:href="#DejaVuSans-73" transform="translate(1009.486328 0)"/>
     </g>
    </g>
   </g>
   <g id="matplotlib.axis_2">
    <g id="ytick_1">
     <g id="line2d_19">
      <path d="M 44.22 344.223728
L 515.31 344.223728
" clip-path="url(#p277b402921)" style="fill: none; stroke: #cccccc; stroke-width: 0.8; stroke-linecap: round"/>
     </g>
     <g id="line2d_20"/>
     <g id="text_11">
      <!-- 0.0 -->
      <g style="fill: #262626" transform="translate(24.816875 348.022947) scale(0.1 -0.1)">
       <defs>
        <path id="DejaVuSans-2e" d="M 684 794
L 1344 794
L 1344 0
L 684 0
L 684 794
z
" transform="scale(0.015625)"/>
       </defs>
       <use xlink:href="#DejaVuSans-30"/>
       <use xlink:href="#DejaVuSans-2e" transform="translate(63.623047 0)"/>
       <use xlink:href="#DejaVuSans-30" transform="translate(95.410156 0)"/>
      </g>
     </g>
    </g>
    <g id="ytick_2">
     <g id="line2d_21">
      <path d="M 44.22 283.526265
L 515.31 283.526265
" clip-path="url(#p277b402921)" style="fill: none; stroke: #cccccc; stroke-width: 0.8; stroke-linecap: round"/>
     </g>
     <g id="line2d_22"/>
     <g id="text_12">
      <!-- 0.5 -->
      <g style="fill: #262626" transform="translate(24.816875 287.325484) scale(0.1 -0.1)">
       <use xlink:href="#DejaVuSans-30"/>
       <use xlink:href="#DejaVuSans-2e" transform="translate(63.623047 0)"/>
       <use xlink:href="#DejaVuSans-35" transform="translate(95.410156 0)"/>
      </g>
     </g>
    </g>
    <g id="ytick_3">
     <g id="line2d_23">
      <path d="M 44.22 222.828801
L 515.31 222.828801
" clip-path="url(#p277b402921)" style="fill: none; stroke: #cccccc; stroke-width: 0.8; stroke-linecap: round"/>
     </g>
     <g id="line2d_24"/>
     <g id="text_13">
      <!-- 1.0 -->
      <g style="fill: #262626" transform="translate(24.816875 226.62802) scale(0.1 -0.1)">
       <use xlink:href="#DejaVuSans-31"/>
       <use xlink:href="#DejaVuSans-2e" transform="translate(63.623047 0)"/>
       <use xlink:href="#DejaVuSans-30" transform="translate(95.410156 0)"/>
      </g>
     </g>
    </g>
    <g id="ytick_4">
     <g id="line2d_25">
      <path d="M 44.22 162.131338
L 515.31 162.131338
" clip-path="url(#p277b402921)" style="fill: none; stroke: #cccccc; stroke-width: 0.8; stroke-linecap: round"/>
     </g>
     <g id="line2d_26"/>
     <g id="text_14">
      <!-- 1.5 -->
      <g style="fill: #262626" transform="translate(24.816875 165.930557) scale(0.1 -0.1)">
       <use xlink:href="#DejaVuSans-31"/>
       <use xlink:href="#DejaVuSans-2e" transform="translate(63.623047 0)"/>
       <use xlink:href="#DejaVuSans-35" transform="translate(95.410156 0)"/>
      </g>
     </g>
    </g>
    <g id="ytick_5">
     <g id="line2d_27">
      <path d="M 44.22 101.433874
L 515.31 101.433874
" clip-path="url(#p277b402921)" style="fill: none; stroke: #cccccc; stroke-width: 0.8; stroke-linecap: round"/>
     </g>
     <g id="line2d_28"/>
     <g id="text_15">
      <!-- 2.0 -->
      <g style="fill: #262626" transform="translate(24.816875 105.233093) scale(0.1 -0.1)">
       <use xlink:href="#DejaVuSans-32"/>
       <use xlink:href="#DejaVuSans-2e" transform="translate(63.623047 0)"/>
       <use xlink:href="#DejaVuSans-30" transform="translate(95.410156 0)"/>
      </g>
     </g>
    </g>
    <g id="text_16">
     <!-- Mean runtime (seconds) -->
     <g style="fill: #262626" transform="translate(18.737187 264.919688) rotate(-90) scale(0.1 -0.1)">
      <defs>
       <path id="DejaVuSans-61" d="M 2194 1759
Q 1497 1759 1228 1600
Q 959 1441 959 1056
Q 959 750 1161 570
Q 1363 391 1709 391
Q 2188 391 2477 730
Q 2766 1069 2766 1631
L 2766 1759
L 2194 1759
z
M 3341 1997
L 3341 0
L 2766 0
L 2766 531
Q 2569 213 2275 61
Q 1981 -91 1556 -91
Q 1019 -91 701 211
Q 384 513 384 1019
Q 384 1609 779 1909
Q 1175 2209 1959 2209
L 2766 2209
L 2766 2266
Q 2766 2663 2505 2880
Q 2244 3097 1772 3097
Q 1472 3097 1187 3025
Q 903 2953 641 2809
L 641 3341
Q 956 3463 1253 3523
Q 1550 3584 1831 3584
Q 2591 3584 2966 3190
Q 3341 2797 3341 1997
z
" transform="scale(0.015625)"/>
       <path id="DejaVuSans-6e" d="M 3513 2113
L 3513 0
L 2938 0
L 2938 2094
Q 2938 2591 2744 2837
Q 2550 3084 2163 3084
Q 1697 3084 1428 2787
Q 1159 2491 1159 1978
L 1159 0
L 581 0
L 581 3500
L 1159 3500
L 1159 2956
Q 1366 3272 1645 3428
Q 1925 3584 2291 3584
Q 2894 3584 3203 3211
Q 3513 2838 3513 2113
z
" transform="scale(0.015625)"/>
       <path id="DejaVuSans-74" d="M 1172 4494
L 1172 3500
L 2356 3500
L 2356 3053
L 1172 3053
L 1172 1153
Q 1172 725 1289 603
Q 1406 481 1766 481
L 2356 481
L 2356 0
L 1766 0
Q 1100 0 847 248
Q 594 497 594 1153
L 594 3053
L 172 3053
L 172 3500
L 594 3500
L 594 4494
L 1172 4494
z
" transform="scale(0.015625)"/>
       <path id="DejaVuSans-28" d="M 1984 4856
Q 1566 4138 1362 3434
Q 1159 2731 1159 2009
Q 1159 1288 1364 580
Q 1569 -128 1984 -844
L 1484 -844
Q 1016 -109 783 600
Q 550 1309 550 2009
Q 550 2706 781 3412
Q 1013 4119 1484 4856
L 1984 4856
z
" transform="scale(0.015625)"/>
       <path id="DejaVuSans-63" d="M 3122 3366
L 3122 2828
Q 2878 2963 2633 3030
Q 2388 3097 2138 3097
Q 1578 3097 1268 2742
Q 959 2388 959 1747
Q 959 1106 1268 751
Q 1578 397 2138 397
Q 2388 397 2633 464
Q 2878 531 3122 666
L 3122 134
Q 2881 22 2623 -34
Q 2366 -91 2075 -91
Q 1284 -91 818 406
Q 353 903 353 1747
Q 353 2603 823 3093
Q 1294 3584 2113 3584
Q 2378 3584 2631 3529
Q 2884 3475 3122 3366
z
" transform="scale(0.015625)"/>
       <path id="DejaVuSans-64" d="M 2906 2969
L 2906 4863
L 3481 4863
L 3481 0
L 2906 0
L 2906 525
Q 2725 213 2448 61
Q 2172 -91 1784 -91
Q 1150 -91 751 415
Q 353 922 353 1747
Q 353 2572 751 3078
Q 1150 3584 1784 3584
Q 2172 3584 2448 3432
Q 2725 3281 2906 2969
z
M 947 1747
Q 947 1113 1208 752
Q 1469 391 1925 391
Q 2381 391 2643 752
Q 2906 1113 2906 1747
Q 2906 2381 2643 2742
Q 2381 3103 1925 3103
Q 1469 3103 1208 2742
Q 947 2381 947 1747
z
" transform="scale(0.015625)"/>
       <path id="DejaVuSans-29" d="M 513 4856
L 1013 4856
Q 1481 4119 1714 3412
Q 1947 2706 1947 2009
Q 1947 1309 1714 600
Q 1481 -109 1013 -844
L 513 -844
Q 928 -128 1133 580
Q 1338 1288 1338 2009
Q 1338 2731 1133 3434
Q 928 4138 513 4856
z
" transform="scale(0.015625)"/>
      </defs>
      <use xlink:href="#DejaVuSans-4d"/>
      <use xlink:href="#DejaVuSans-65" transform="translate(86.279297 0)"/>
      <use xlink:href="#DejaVuSans-61" transform="translate(147.802734 0)"/>
      <use xlink:href="#DejaVuSans-6e" transform="translate(209.082031 0)"/>
      <use xlink:href="#DejaVuSans-20" transform="translate(272.460938 0)"/>
      <use xlink:href="#DejaVuSans-72" transform="translate(304.248047 0)"/>
      <use xlink:href="#DejaVuSans-75" transform="translate(345.361328 0)"/>
      <use xlink:href="#DejaVuSans-6e" transform="translate(408.740234 0)"/>
      <use xlink:href="#DejaVuSans-74" transform="translate(472.119141 0)"/>
      <use xlink:href="#DejaVuSans-69" transform="translate(511.328125 0)"/>
      <use xlink:href="#DejaVuSans-6d" transform="translate(539.111328 0)"/>
      <use xlink:href="#DejaVuSans-65" transform="translate(636.523438 0)"/>
      <use xlink:href="#DejaVuSans-20" transform="translate(698.046875 0)"/>
      <use xlink:href="#DejaVuSans-28" transform="translate(729.833984 0)"/>
      <use xlink:href="#DejaVuSans-73" transform="translate(768.847656 0)"/>
      <use xlink:href="#DejaVuSans-65" transform="translate(820.947266 0)"/>
      <use xlink:href="#DejaVuSans-63" transform="translate(882.470703 0)"/>
      <use xlink:href="#DejaVuSans-6f" transform="translate(937.451172 0)"/>
      <use xlink:href="#DejaVuSans-6e" transform="translate(998.632812 0)"/>
      <use xlink:href="#DejaVuSans-64" transform="translate(1062.011719 0)"/>
      <use xlink:href="#DejaVuSans-73" transform="translate(1125.488281 0)"/>
      <use xlink:href="#DejaVuSans-29" transform="translate(1177.587891 0)"/>
     </g>
    </g>
   </g>
   <g id="FillBetweenPolyCollection_1">
    <defs>
     <path id="m2ef767a1da" d="M 65.633182 -52.50325
L 65.633182 -52.41
L 172.699091 -52.52773
L 279.765 -52.685074
L 386.830909 -52.740128
L 493.896818 -52.910647
L 493.896818 -52.978689
L 493.896818 -52.978689
L 386.830909 -52.833583
L 279.765 -52.88851
L 172.699091 -52.646305
L 65.633182 -52.50325
z
" style="stroke: #a6cee4; stroke-opacity: 0.16"/>
    </defs>
    <g clip-path="url(#p277b402921)">
     <use xlink:href="#m2ef767a1da" x="0" y="396" style="fill: #a6cee4; fill-opacity: 0.16; stroke: #a6cee4; stroke-opacity: 0.16"/>
    </g>
   </g>
   <g id="FillBetweenPolyCollection_2">
    <defs>
     <path id="m61bb4cd241" d="M 65.633182 -52.625557
L 65.633182 -52.461023
L 172.699091 -52.755109
L 279.765 -53.013484
L 386.830909 -53.207318
L 493.896818 -53.407681
L 493.896818 -53.506173
L 493.896818 -53.506173
L 386.830909 -53.344846
L 279.765 -53.128153
L 172.699091 -52.821126
L 65.633182 -52.625557
z
" style="stroke: #6aaed6; stroke-opacity: 0.16"/>
    </defs>
    <g clip-path="url(#p277b402921)">
     <use xlink:href="#m61bb4cd241" x="0" y="396" style="fill: #6aaed6; fill-opacity: 0.16; stroke: #6aaed6; stroke-opacity: 0.16"/>
    </g>
   </g>
   <g id="FillBetweenPolyCollection_3">
    <defs>
     <path id="m37283fce69" d="M 65.633182 -52.716137
L 65.633182 -52.621387
L 172.699091 -52.980147
L 279.765 -53.262879
L 386.830909 -53.579605
L 493.896818 -54.001496
L 493.896818 -54.044409
L 493.896818 -54.044409
L 386.830909 -53.70923
L 279.765 -53.340201
L 172.699091 -53.069106
L 65.633182 -52.716137
z
" style="stroke: #3b8bc2; stroke-opacity: 0.16"/>
    </defs>
    <g clip-path="url(#p277b402921)">
     <use xlink:href="#m37283fce69" x="0" y="396" style="fill: #3b8bc2; fill-opacity: 0.16; stroke: #3b8bc2; stroke-opacity: 0.16"/>
    </g>
   </g>
   <g id="FillBetweenPolyCollection_4">
    <defs>
     <path id="m0e7cb8f0de" d="M 65.633182 -52.922369
L 65.633182 -52.789199
L 172.699091 -53.236225
L 279.765 -53.607732
L 386.830909 -53.9041
L 493.896818 -54.479133
L 493.896818 -54.760869
L 493.896818 -54.760869
L 386.830909 -54.135171
L 279.765 -53.692943
L 172.699091 -53.272598
L 65.633182 -52.922369
z
" style="stroke: #1764ab; stroke-opacity: 0.16"/>
    </defs>
    <g clip-path="url(#p277b402921)">
     <use xlink:href="#m0e7cb8f0de" x="0" y="396" style="fill: #1764ab; fill-opacity: 0.16; stroke: #1764ab; stroke-opacity: 0.16"/>
    </g>
   </g>
   <g id="FillBetweenPolyCollection_5">
    <defs>
     <path id="m85686d3338" d="M 65.633182 -53.276973
L 65.633182 -53.148276
L 172.699091 -53.550644
L 279.765 -53.864897
L 386.830909 -54.418798
L 493.896818 -54.942918
L 493.896818 -55.178918
L 493.896818 -55.178918
L 386.830909 -54.5949
L 279.765 -54.043018
L 172.699091 -53.769814
L 65.633182 -53.276973
z
" style="stroke: #083c7d; stroke-opacity: 0.16"/>
    </defs>
    <g clip-path="url(#p277b402921)">
     <use xlink:href="#m85686d3338" x="0" y="396" style="fill: #083c7d; fill-opacity: 0.16; stroke: #083c7d; stroke-opacity: 0.16"/>
    </g>
   </g>
   <g id="line2d_29">
    <path d="M 65.633182 343.543375
L 172.699091 343.412983
L 279.765 343.213208
L 386.830909 343.213145
L 493.896818 343.055332
" clip-path="url(#p277b402921)" style="fill: none; stroke: #a6cee4; stroke-width: 2; stroke-linecap: round"/>
    <defs>
     <path id="m51718c9be3" d="M 0 3
C 0.795609 3 1.55874 2.683901 2.12132 2.12132
C 2.683901 1.55874 3 0.795609 3 0
C 3 -0.795609 2.683901 -1.55874 2.12132 -2.12132
C 1.55874 -2.683901 0.795609 -3 0 -3
C -0.795609 -3 -1.55874 -2.683901 -2.12132 -2.12132
C -2.683901 -1.55874 -3 -0.795609 -3 0
C -3 0.795609 -2.683901 1.55874 -2.12132 2.12132
C -1.55874 2.683901 -0.795609 3 0 3
z
" style="stroke: #a6cee4"/>
    </defs>
    <g clip-path="url(#p277b402921)">
     <use xlink:href="#m51718c9be3" x="65.633182" y="343.543375" style="fill: #a6cee4; stroke: #a6cee4"/>
     <use xlink:href="#m51718c9be3" x="172.699091" y="343.412983" style="fill: #a6cee4; stroke: #a6cee4"/>
     <use xlink:href="#m51718c9be3" x="279.765" y="343.213208" style="fill: #a6cee4; stroke: #a6cee4"/>
     <use xlink:href="#m51718c9be3" x="386.830909" y="343.213145" style="fill: #a6cee4; stroke: #a6cee4"/>
     <use xlink:href="#m51718c9be3" x="493.896818" y="343.055332" style="fill: #a6cee4; stroke: #a6cee4"/>
    </g>
   </g>
   <g id="line2d_30">
    <path d="M 65.633182 343.45671
L 172.699091 343.211882
L 279.765 342.929182
L 386.830909 342.723918
L 493.896818 342.543073
" clip-path="url(#p277b402921)" style="fill: none; stroke: #6aaed6; stroke-width: 2; stroke-linecap: round"/>
    <defs>
     <path id="m24788b9bb6" d="M 0 3
C 0.795609 3 1.55874 2.683901 2.12132 2.12132
C 2.683901 1.55874 3 0.795609 3 0
C 3 -0.795609 2.683901 -1.55874 2.12132 -2.12132
C 1.55874 -2.683901 0.795609 -3 0 -3
C -0.795609 -3 -1.55874 -2.683901 -2.12132 -2.12132
C -2.683901 -1.55874 -3 -0.795609 -3 0
C -3 0.795609 -2.683901 1.55874 -2.12132 2.12132
C -1.55874 2.683901 -0.795609 3 0 3
z
" style="stroke: #6aaed6"/>
    </defs>
    <g clip-path="url(#p277b402921)">
     <use xlink:href="#m24788b9bb6" x="65.633182" y="343.45671" style="fill: #6aaed6; stroke: #6aaed6"/>
     <use xlink:href="#m24788b9bb6" x="172.699091" y="343.211882" style="fill: #6aaed6; stroke: #6aaed6"/>
     <use xlink:href="#m24788b9bb6" x="279.765" y="342.929182" style="fill: #6aaed6; stroke: #6aaed6"/>
     <use xlink:href="#m24788b9bb6" x="386.830909" y="342.723918" style="fill: #6aaed6; stroke: #6aaed6"/>
     <use xlink:href="#m24788b9bb6" x="493.896818" y="342.543073" style="fill: #6aaed6; stroke: #6aaed6"/>
    </g>
   </g>
   <g id="line2d_31">
    <path d="M 65.633182 343.331238
L 172.699091 342.975374
L 279.765 342.69846
L 386.830909 342.355583
L 493.896818 341.977047
" clip-path="url(#p277b402921)" style="fill: none; stroke: #3b8bc2; stroke-width: 2; stroke-linecap: round"/>
    <defs>
     <path id="m51807d90b5" d="M 0 3
C 0.795609 3 1.55874 2.683901 2.12132 2.12132
C 2.683901 1.55874 3 0.795609 3 0
C 3 -0.795609 2.683901 -1.55874 2.12132 -2.12132
C 1.55874 -2.683901 0.795609 -3 0 -3
C -0.795609 -3 -1.55874 -2.683901 -2.12132 -2.12132
C -2.683901 -1.55874 -3 -0.795609 -3 0
C -3 0.795609 -2.683901 1.55874 -2.12132 2.12132
C -1.55874 2.683901 -0.795609 3 0 3
z
" style="stroke: #3b8bc2"/>
    </defs>
    <g clip-path="url(#p277b402921)">
     <use xlink:href="#m51807d90b5" x="65.633182" y="343.331238" style="fill: #3b8bc2; stroke: #3b8bc2"/>
     <use xlink:href="#m51807d90b5" x="172.699091" y="342.975374" style="fill: #3b8bc2; stroke: #3b8bc2"/>
     <use xlink:href="#m51807d90b5" x="279.765" y="342.69846" style="fill: #3b8bc2; stroke: #3b8bc2"/>
     <use xlink:href="#m51807d90b5" x="386.830909" y="342.355583" style="fill: #3b8bc2; stroke: #3b8bc2"/>
     <use xlink:href="#m51807d90b5" x="493.896818" y="341.977047" style="fill: #3b8bc2; stroke: #3b8bc2"/>
    </g>
   </g>
   <g id="line2d_32">
    <path d="M 65.633182 343.144216
L 172.699091 342.745588
L 279.765 342.349662
L 386.830909 341.980364
L 493.896818 341.379999
" clip-path="url(#p277b402921)" style="fill: none; stroke: #1764ab; stroke-width: 2; stroke-linecap: round"/>
    <defs>
     <path id="m92eb8d5dcd" d="M 0 3
C 0.795609 3 1.55874 2.683901 2.12132 2.12132
C 2.683901 1.55874 3 0.795609 3 0
C 3 -0.795609 2.683901 -1.55874 2.12132 -2.12132
C 1.55874 -2.683901 0.795609 -3 0 -3
C -0.795609 -3 -1.55874 -2.683901 -2.12132 -2.12132
C -2.683901 -1.55874 -3 -0.795609 -3 0
C -3 0.795609 -2.683901 1.55874 -2.12132 2.12132
C -1.55874 2.683901 -0.795609 3 0 3
z
" style="stroke: #1764ab"/>
    </defs>
    <g clip-path="url(#p277b402921)">
     <use xlink:href="#m92eb8d5dcd" x="65.633182" y="343.144216" style="fill: #1764ab; stroke: #1764ab"/>
     <use xlink:href="#m92eb8d5dcd" x="172.699091" y="342.745588" style="fill: #1764ab; stroke: #1764ab"/>
     <use xlink:href="#m92eb8d5dcd" x="279.765" y="342.349662" style="fill: #1764ab; stroke: #1764ab"/>
     <use xlink:href="#m92eb8d5dcd" x="386.830909" y="341.980364" style="fill: #1764ab; stroke: #1764ab"/>
     <use xlink:href="#m92eb8d5dcd" x="493.896818" y="341.379999" style="fill: #1764ab; stroke: #1764ab"/>
    </g>
   </g>
   <g id="line2d_33">
    <path d="M 65.633182 342.787375
L 172.699091 342.339771
L 279.765 342.046042
L 386.830909 341.493151
L 493.896818 340.939082
" clip-path="url(#p277b402921)" style="fill: none; stroke: #083c7d; stroke-width: 2; stroke-linecap: round"/>
    <defs>
     <path id="m809cc5d11e" d="M 0 3
C 0.795609 3 1.55874 2.683901 2.12132 2.12132
C 2.683901 1.55874 3 0.795609 3 0
C 3 -0.795609 2.683901 -1.55874 2.12132 -2.12132
C 1.55874 -2.683901 0.795609 -3 0 -3
C -0.795609 -3 -1.55874 -2.683901 -2.12132 -2.12132
C -2.683901 -1.55874 -3 -0.795609 -3 0
C -3 0.795609 -2.683901 1.55874 -2.12132 2.12132
C -1.55874 2.683901 -0.795609 3 0 3
z
" style="stroke: #083c7d"/>
    </defs>
    <g clip-path="url(#p277b402921)">
     <use xlink:href="#m809cc5d11e" x="65.633182" y="342.787375" style="fill: #083c7d; stroke: #083c7d"/>
     <use xlink:href="#m809cc5d11e" x="172.699091" y="342.339771" style="fill: #083c7d; stroke: #083c7d"/>
     <use xlink:href="#m809cc5d11e" x="279.765" y="342.046042" style="fill: #083c7d; stroke: #083c7d"/>
     <use xlink:href="#m809cc5d11e" x="386.830909" y="341.493151" style="fill: #083c7d; stroke: #083c7d"/>
     <use xlink:href="#m809cc5d11e" x="493.896818" y="340.939082" style="fill: #083c7d; stroke: #083c7d"/>
    </g>
   </g>
   <g id="patch_3">
    <path d="M 44.22 357.54
L 44.22 50.64
" style="fill: none; stroke: #cccccc; stroke-linejoin: miter; stroke-linecap: square"/>
   </g>
   <g id="patch_4">
    <path d="M 515.31 357.54
L 515.31 50.64
" style="fill: none; stroke: #cccccc; stroke-linejoin: miter; stroke-linecap: square"/>
   </g>
   <g id="patch_5">
    <path d="M 44.22 357.54
L 515.31 357.54
" style="fill: none; stroke: #cccccc; stroke-linejoin: miter; stroke-linecap: square"/>
   </g>
   <g id="patch_6">
    <path d="M 44.22 50.64
L 515.31 50.64
" style="fill: none; stroke: #cccccc; stroke-linejoin: miter; stroke-linecap: square"/>
   </g>
   <g id="text_17">
    <!-- ryl 0.19.0 -->
    <g style="fill: #262626" transform="translate(251.089687 44.64) scale(0.12 -0.12)">
     <defs>
      <path id="DejaVuSans-79" d="M 2059 -325
Q 1816 -950 1584 -1140
Q 1353 -1331 966 -1331
L 506 -1331
L 506 -850
L 844 -850
Q 1081 -850 1212 -737
Q 1344 -625 1503 -206
L 1606 56
L 191 3500
L 800 3500
L 1894 763
L 2988 3500
L 3597 3500
L 2059 -325
z
" transform="scale(0.015625)"/>
     </defs>
     <use xlink:href="#DejaVuSans-72"/>
     <use xlink:href="#DejaVuSans-79" transform="translate(41.113281 0)"/>
     <use xlink:href="#DejaVuSans-6c" transform="translate(100.292969 0)"/>
     <use xlink:href="#DejaVuSans-20" transform="translate(128.076172 0)"/>
     <use xlink:href="#DejaVuSans-30" transform="translate(159.863281 0)"/>
     <use xlink:href="#DejaVuSans-2e" transform="translate(223.486328 0)"/>
     <use xlink:href="#DejaVuSans-31" transform="translate(255.273438 0)"/>
     <use xlink:href="#DejaVuSans-39" transform="translate(318.896484 0)"/>
     <use xlink:href="#DejaVuSans-2e" transform="translate(382.519531 0)"/>
     <use xlink:href="#DejaVuSans-30" transform="translate(414.306641 0)"/>
    </g>
   </g>
  </g>
  <g id="axes_2">
   <g id="patch_7">
    <path d="M 526.11 357.54
L 997.2 357.54
L 997.2 50.64
L 526.11 50.64
z
" style="fill: #ffffff"/>
   </g>
   <g id="matplotlib.axis_3">
    <g id="xtick_10">
     <g id="line2d_34">
      <path d="M 547.523182 357.54
L 547.523182 50.64
" clip-path="url(#p41a759a97d)" style="fill: none; stroke: #cccccc; stroke-width: 0.8; stroke-linecap: round"/>
     </g>
     <g id="line2d_35"/>
     <g id="text_18">
      <!-- 20 -->
      <g style="fill: #262626" transform="translate(541.160682 368.638438) scale(0.1 -0.1)">
       <use xlink:href="#DejaVuSans-32"/>
       <use xlink:href="#DejaVuSans-30" transform="translate(63.623047 0)"/>
      </g>
     </g>
    </g>
    <g id="xtick_11">
     <g id="line2d_36">
      <path d="M 601.056136 357.54
L 601.056136 50.64
" clip-path="url(#p41a759a97d)" style="fill: none; stroke: #cccccc; stroke-width: 0.8; stroke-linecap: round"/>
     </g>
     <g id="line2d_37"/>
     <g id="text_19">
      <!-- 30 -->
      <g style="fill: #262626" transform="translate(594.693636 368.638438) scale(0.1 -0.1)">
       <use xlink:href="#DejaVuSans-33"/>
       <use xlink:href="#DejaVuSans-30" transform="translate(63.623047 0)"/>
      </g>
     </g>
    </g>
    <g id="xtick_12">
     <g id="line2d_38">
      <path d="M 654.589091 357.54
L 654.589091 50.64
" clip-path="url(#p41a759a97d)" style="fill: none; stroke: #cccccc; stroke-width: 0.8; stroke-linecap: round"/>
     </g>
     <g id="line2d_39"/>
     <g id="text_20">
      <!-- 40 -->
      <g style="fill: #262626" transform="translate(648.226591 368.638438) scale(0.1 -0.1)">
       <use xlink:href="#DejaVuSans-34"/>
       <use xlink:href="#DejaVuSans-30" transform="translate(63.623047 0)"/>
      </g>
     </g>
    </g>
    <g id="xtick_13">
     <g id="line2d_40">
      <path d="M 708.122045 357.54
L 708.122045 50.64
" clip-path="url(#p41a759a97d)" style="fill: none; stroke: #cccccc; stroke-width: 0.8; stroke-linecap: round"/>
     </g>
     <g id="line2d_41"/>
     <g id="text_21">
      <!-- 50 -->
      <g style="fill: #262626" transform="translate(701.759545 368.638438) scale(0.1 -0.1)">
       <use xlink:href="#DejaVuSans-35"/>
       <use xlink:href="#DejaVuSans-30" transform="translate(63.623047 0)"/>
      </g>
     </g>
    </g>
    <g id="xtick_14">
     <g id="line2d_42">
      <path d="M 761.655 357.54
L 761.655 50.64
" clip-path="url(#p41a759a97d)" style="fill: none; stroke: #cccccc; stroke-width: 0.8; stroke-linecap: round"/>
     </g>
     <g id="line2d_43"/>
     <g id="text_22">
      <!-- 60 -->
      <g style="fill: #262626" transform="translate(755.2925 368.638438) scale(0.1 -0.1)">
       <use xlink:href="#DejaVuSans-36"/>
       <use xlink:href="#DejaVuSans-30" transform="translate(63.623047 0)"/>
      </g>
     </g>
    </g>
    <g id="xtick_15">
     <g id="line2d_44">
      <path d="M 815.187955 357.54
L 815.187955 50.64
" clip-path="url(#p41a759a97d)" style="fill: none; stroke: #cccccc; stroke-width: 0.8; stroke-linecap: round"/>
     </g>
     <g id="line2d_45"/>
     <g id="text_23">
      <!-- 70 -->
      <g style="fill: #262626" transform="translate(808.825455 368.638438) scale(0.1 -0.1)">
       <use xlink:href="#DejaVuSans-37"/>
       <use xlink:href="#DejaVuSans-30" transform="translate(63.623047 0)"/>
      </g>
     </g>
    </g>
    <g id="xtick_16">
     <g id="line2d_46">
      <path d="M 868.720909 357.54
L 868.720909 50.64
" clip-path="url(#p41a759a97d)" style="fill: none; stroke: #cccccc; stroke-width: 0.8; stroke-linecap: round"/>
     </g>
     <g id="line2d_47"/>
     <g id="text_24">
      <!-- 80 -->
      <g style="fill: #262626" transform="translate(862.358409 368.638438) scale(0.1 -0.1)">
       <use xlink:href="#DejaVuSans-38"/>
       <use xlink:href="#DejaVuSans-30" transform="translate(63.623047 0)"/>
      </g>
     </g>
    </g>
    <g id="xtick_17">
     <g id="line2d_48">
      <path d="M 922.253864 357.54
L 922.253864 50.64
" clip-path="url(#p41a759a97d)" style="fill: none; stroke: #cccccc; stroke-width: 0.8; stroke-linecap: round"/>
     </g>
     <g id="line2d_49"/>
     <g id="text_25">
      <!-- 90 -->
      <g style="fill: #262626" transform="translate(915.891364 368.638438) scale(0.1 -0.1)">
       <use xlink:href="#DejaVuSans-39"/>
       <use xlink:href="#DejaVuSans-30" transform="translate(63.623047 0)"/>
      </g>
     </g>
    </g>
    <g id="xtick_18">
     <g id="line2d_50">
      <path d="M 975.786818 357.54
L 975.786818 50.64
" clip-path="url(#p41a759a97d)" style="fill: none; stroke: #cccccc; stroke-width: 0.8; stroke-linecap: round"/>
     </g>
     <g id="line2d_51"/>
     <g id="text_26">
      <!-- 100 -->
      <g style="fill: #262626" transform="translate(966.243068 368.638438) scale(0.1 -0.1)">
       <use xlink:href="#DejaVuSans-31"/>
       <use xlink:href="#DejaVuSans-30" transform="translate(63.623047 0)"/>
       <use xlink:href="#DejaVuSans-30" transform="translate(127.246094 0)"/>
      </g>
     </g>
    </g>
    <g id="text_27">
     <!-- Number of YAML files -->
     <g style="fill: #262626" transform="translate(708.576094 382.316562) scale(0.1 -0.1)">
      <use xlink:href="#DejaVuSans-4e"/>
      <use xlink:href="#DejaVuSans-75" transform="translate(74.804688 0)"/>
      <use xlink:href="#DejaVuSans-6d" transform="translate(138.183594 0)"/>
      <use xlink:href="#DejaVuSans-62" transform="translate(235.595703 0)"/>
      <use xlink:href="#DejaVuSans-65" transform="translate(299.072266 0)"/>
      <use xlink:href="#DejaVuSans-72" transform="translate(360.595703 0)"/>
      <use xlink:href="#DejaVuSans-20" transform="translate(401.708984 0)"/>
      <use xlink:href="#DejaVuSans-6f" transform="translate(433.496094 0)"/>
      <use xlink:href="#DejaVuSans-66" transform="translate(494.677734 0)"/>
      <use xlink:href="#DejaVuSans-20" transform="translate(529.882812 0)"/>
      <use xlink:href="#DejaVuSans-59" transform="translate(561.669922 0)"/>
      <use xlink:href="#DejaVuSans-41" transform="translate(615.003906 0)"/>
      <use xlink:href="#DejaVuSans-4d" transform="translate(683.412109 0)"/>
      <use xlink:href="#DejaVuSans-4c" transform="translate(769.691406 0)"/>
      <use xlink:href="#DejaVuSans-20" transform="translate(825.404297 0)"/>
      <use xlink:href="#DejaVuSans-66" transform="translate(857.191406 0)"/>
      <use xlink:href="#DejaVuSans-69" transform="translate(892.396484 0)"/>
      <use xlink:href="#DejaVuSans-6c" transform="translate(920.179688 0)"/>
      <use xlink:href="#DejaVuSans-65" transform="translate(947.962891 0)"/>
      <use xlink:href="#DejaVuSans-73" transform="translate(1009.486328 0)"/>
     </g>
    </g>
   </g>
   <g id="matplotlib.axis_4">
    <g id="ytick_6">
     <g id="line2d_52">
      <path d="M 526.11 344.223728
L 997.2 344.223728
" clip-path="url(#p41a759a97d)" style="fill: none; stroke: #cccccc; stroke-width: 0.8; stroke-linecap: round"/>
     </g>
     <g id="line2d_53"/>
    </g>
    <g id="ytick_7">
     <g id="line2d_54">
      <path d="M 526.11 283.526265
L 997.2 283.526265
" clip-path="url(#p41a759a97d)" style="fill: none; stroke: #cccccc; stroke-width: 0.8; stroke-linecap: round"/>
     </g>
     <g id="line2d_55"/>
    </g>
    <g id="ytick_8">
     <g id="line2d_56">
      <path d="M 526.11 222.828801
L 997.2 222.828801
" clip-path="url(#p41a759a97d)" style="fill: none; stroke: #cccccc; stroke-width: 0.8; stroke-linecap: round"/>
     </g>
     <g id="line2d_57"/>
    </g>
    <g id="ytick_9">
     <g id="line2d_58">
      <path d="M 526.11 162.131338
L 997.2 162.131338
" clip-path="url(#p41a759a97d)" style="fill: none; stroke: #cccccc; stroke-width: 0.8; stroke-linecap: round"/>
     </g>
     <g id="line2d_59"/>
    </g>
    <g id="ytick_10">
     <g id="line2d_60">
      <path d="M 526.11 101.433874
L 997.2 101.433874
" clip-path="url(#p41a759a97d)" style="fill: none; stroke: #cccccc; stroke-width: 0.8; stroke-linecap: round"/>
     </g>
     <g id="line2d_61"/>
    </g>
   </g>
   <g id="FillBetweenPolyCollection_6">
    <defs>
     <path id="m61987daa7e" d="M 547.523182 -67.879427
L 547.523182 -67.316057
L 654.589091 -74.20996
L 761.655 -80.644367
L 868.720909 -87.180264
L 975.786818 -93.311706
L 975.786818 -94.254957
L 975.786818 -94.254957
L 868.720909 -87.934287
L 761.655 -81.294829
L 654.589091 -74.636173
L 547.523182 -67.879427
z
" style="stroke: #a6cee4; stroke-opacity: 0.16"/>
    </defs>
    <g clip-path="url(#p41a759a97d)">
     <use xlink:href="#m61987daa7e" x="0" y="396" style="fill: #a6cee4; fill-opacity: 0.16; stroke: #a6cee4; stroke-opacity: 0.16"/>
    </g>
   </g>
   <g id="FillBetweenPolyCollection_7">
    <defs>
     <path id="m14ba350982" d="M 547.523182 -79.73891
L 547.523182 -78.78288
L 654.589091 -97.525146
L 761.655 -115.406501
L 868.720909 -133.887758
L 975.786818 -152.350114
L 975.786818 -153.068162
L 975.786818 -153.068162
L 868.720909 -134.791917
L 761.655 -116.353176
L 654.589091 -98.224053
L 547.523182 -79.73891
z
" style="stroke: #6aaed6; stroke-opacity: 0.16"/>
    </defs>
    <g clip-path="url(#p41a759a97d)">
     <use xlink:href="#m14ba350982" x="0" y="396" style="fill: #6aaed6; fill-opacity: 0.16; stroke: #6aaed6; stroke-opacity: 0.16"/>
    </g>
   </g>
   <g id="FillBetweenPolyCollection_8">
    <defs>
     <path id="me179cc9c80" d="M 547.523182 -91.429355
L 547.523182 -90.507077
L 654.589091 -119.875201
L 761.655 -150.269308
L 868.720909 -179.304155
L 975.786818 -208.987701
L 975.786818 -211.537973
L 975.786818 -211.537973
L 868.720909 -181.624557
L 761.655 -152.810808
L 654.589091 -120.40605
L 547.523182 -91.429355
z
" style="stroke: #3b8bc2; stroke-opacity: 0.16"/>
    </defs>
    <g clip-path="url(#p41a759a97d)">
     <use xlink:href="#me179cc9c80" x="0" y="396" style="fill: #3b8bc2; fill-opacity: 0.16; stroke: #3b8bc2; stroke-opacity: 0.16"/>
    </g>
   </g>
   <g id="FillBetweenPolyCollection_9">
    <defs>
     <path id="me61cdf0626" d="M 547.523182 -103.088494
L 547.523182 -102.081934
L 654.589091 -143.292649
L 761.655 -183.504678
L 868.720909 -226.432359
L 975.786818 -266.404753
L 975.786818 -269.631247
L 975.786818 -269.631247
L 868.720909 -231.029814
L 761.655 -184.700432
L 654.589091 -144.561418
L 547.523182 -103.088494
z
" style="stroke: #1764ab; stroke-opacity: 0.16"/>
    </defs>
    <g clip-path="url(#p41a759a97d)">
     <use xlink:href="#me61cdf0626" x="0" y="396" style="fill: #1764ab; fill-opacity: 0.16; stroke: #1764ab; stroke-opacity: 0.16"/>
    </g>
   </g>
   <g id="FillBetweenPolyCollection_10">
    <defs>
     <path id="m7ee23bd04b" d="M 547.523182 -115.358617
L 547.523182 -114.301928
L 654.589091 -165.383934
L 761.655 -218.709912
L 868.720909 -271.733793
L 975.786818 -328.739603
L 975.786818 -331.41
L 975.786818 -331.41
L 868.720909 -274.478997
L 761.655 -220.469835
L 654.589091 -169.16127
L 547.523182 -115.358617
z
" style="stroke: #083c7d; stroke-opacity: 0.16"/>
    </defs>
    <g clip-path="url(#p41a759a97d)">
     <use xlink:href="#m7ee23bd04b" x="0" y="396" style="fill: #083c7d; fill-opacity: 0.16; stroke: #083c7d; stroke-opacity: 0.16"/>
    </g>
   </g>
   <g id="line2d_62">
    <path d="M 547.523182 328.402258
L 654.589091 321.576934
L 761.655 315.030402
L 868.720909 308.442724
L 975.786818 302.216669
" clip-path="url(#p41a759a97d)" style="fill: none; stroke: #a6cee4; stroke-width: 2; stroke-linecap: round"/>
    <g clip-path="url(#p41a759a97d)">
     <use xlink:href="#m51718c9be3" x="547.523182" y="328.402258" style="fill: #a6cee4; stroke: #a6cee4"/>
     <use xlink:href="#m51718c9be3" x="654.589091" y="321.576934" style="fill: #a6cee4; stroke: #a6cee4"/>
     <use xlink:href="#m51718c9be3" x="761.655" y="315.030402" style="fill: #a6cee4; stroke: #a6cee4"/>
     <use xlink:href="#m51718c9be3" x="868.720909" y="308.442724" style="fill: #a6cee4; stroke: #a6cee4"/>
     <use xlink:href="#m51718c9be3" x="975.786818" y="302.216669" style="fill: #a6cee4; stroke: #a6cee4"/>
    </g>
   </g>
   <g id="line2d_63">
    <path d="M 547.523182 316.739105
L 654.589091 298.125401
L 761.655 280.120162
L 868.720909 261.660163
L 975.786818 243.290862
" clip-path="url(#p41a759a97d)" style="fill: none; stroke: #6aaed6; stroke-width: 2; stroke-linecap: round"/>
    <g clip-path="url(#p41a759a97d)">
     <use xlink:href="#m24788b9bb6" x="547.523182" y="316.739105" style="fill: #6aaed6; stroke: #6aaed6"/>
     <use xlink:href="#m24788b9bb6" x="654.589091" y="298.125401" style="fill: #6aaed6; stroke: #6aaed6"/>
     <use xlink:href="#m24788b9bb6" x="761.655" y="280.120162" style="fill: #6aaed6; stroke: #6aaed6"/>
     <use xlink:href="#m24788b9bb6" x="868.720909" y="261.660163" style="fill: #6aaed6; stroke: #6aaed6"/>
     <use xlink:href="#m24788b9bb6" x="975.786818" y="243.290862" style="fill: #6aaed6; stroke: #6aaed6"/>
    </g>
   </g>
   <g id="line2d_64">
    <path d="M 547.523182 305.031784
L 654.589091 275.859375
L 761.655 244.459942
L 868.720909 215.535644
L 975.786818 185.737163
" clip-path="url(#p41a759a97d)" style="fill: none; stroke: #3b8bc2; stroke-width: 2; stroke-linecap: round"/>
    <g clip-path="url(#p41a759a97d)">
     <use xlink:href="#m51807d90b5" x="547.523182" y="305.031784" style="fill: #3b8bc2; stroke: #3b8bc2"/>
     <use xlink:href="#m51807d90b5" x="654.589091" y="275.859375" style="fill: #3b8bc2; stroke: #3b8bc2"/>
     <use xlink:href="#m51807d90b5" x="761.655" y="244.459942" style="fill: #3b8bc2; stroke: #3b8bc2"/>
     <use xlink:href="#m51807d90b5" x="868.720909" y="215.535644" style="fill: #3b8bc2; stroke: #3b8bc2"/>
     <use xlink:href="#m51807d90b5" x="975.786818" y="185.737163" style="fill: #3b8bc2; stroke: #3b8bc2"/>
    </g>
   </g>
   <g id="line2d_65">
    <path d="M 547.523182 293.414786
L 654.589091 252.072966
L 761.655 211.897445
L 868.720909 167.268913
L 975.786818 127.982
" clip-path="url(#p41a759a97d)" style="fill: none; stroke: #1764ab; stroke-width: 2; stroke-linecap: round"/>
    <g clip-path="url(#p41a759a97d)">
     <use xlink:href="#m92eb8d5dcd" x="547.523182" y="293.414786" style="fill: #1764ab; stroke: #1764ab"/>
     <use xlink:href="#m92eb8d5dcd" x="654.589091" y="252.072966" style="fill: #1764ab; stroke: #1764ab"/>
     <use xlink:href="#m92eb8d5dcd" x="761.655" y="211.897445" style="fill: #1764ab; stroke: #1764ab"/>
     <use xlink:href="#m92eb8d5dcd" x="868.720909" y="167.268913" style="fill: #1764ab; stroke: #1764ab"/>
     <use xlink:href="#m92eb8d5dcd" x="975.786818" y="127.982" style="fill: #1764ab; stroke: #1764ab"/>
    </g>
   </g>
   <g id="line2d_66">
    <path d="M 547.523182 281.169728
L 654.589091 228.727398
L 761.655 176.410127
L 868.720909 122.893605
L 975.786818 65.925199
" clip-path="url(#p41a759a97d)" style="fill: none; stroke: #083c7d; stroke-width: 2; stroke-linecap: round"/>
    <g clip-path="url(#p41a759a97d)">
     <use xlink:href="#m809cc5d11e" x="547.523182" y="281.169728" style="fill: #083c7d; stroke: #083c7d"/>
     <use xlink:href="#m809cc5d11e" x="654.589091" y="228.727398" style="fill: #083c7d; stroke: #083c7d"/>
     <use xlink:href="#m809cc5d11e" x="761.655" y="176.410127" style="fill: #083c7d; stroke: #083c7d"/>
     <use xlink:href="#m809cc5d11e" x="868.720909" y="122.893605" style="fill: #083c7d; stroke: #083c7d"/>
     <use xlink:href="#m809cc5d11e" x="975.786818" y="65.925199" style="fill: #083c7d; stroke: #083c7d"/>
    </g>
   </g>
   <g id="patch_8">
    <path d="M 526.11 357.54
L 526.11 50.64
" style="fill: none; stroke: #cccccc; stroke-linejoin: miter; stroke-linecap: square"/>
   </g>
   <g id="patch_9">
    <path d="M 997.2 357.54
L 997.2 50.64
" style="fill: none; stroke: #cccccc; stroke-linejoin: miter; stroke-linecap: square"/>
   </g>
   <g id="patch_10">
    <path d="M 526.11 357.54
L 997.2 357.54
" style="fill: none; stroke: #cccccc; stroke-linejoin: miter; stroke-linecap: square"/>
   </g>
   <g id="patch_11">
    <path d="M 526.11 50.64
L 997.2 50.64
" style="fill: none; stroke: #cccccc; stroke-linejoin: miter; stroke-linecap: square"/>
   </g>
   <g id="text_28">
    <!-- yamllint 1.38.0 -->
    <g style="fill: #262626" transform="translate(716.436563 44.64) scale(0.12 -0.12)">
     <use xlink:href="#DejaVuSans-79"/>
     <use xlink:href="#DejaVuSans-61" transform="translate(59.179688 0)"/>
     <use xlink:href="#DejaVuSans-6d" transform="translate(120.458984 0)"/>
     <use xlink:href="#DejaVuSans-6c" transform="translate(217.871094 0)"/>
     <use xlink:href="#DejaVuSans-6c" transform="translate(245.654297 0)"/>
     <use xlink:href="#DejaVuSans-69" transform="translate(273.4375 0)"/>
     <use xlink:href="#DejaVuSans-6e" transform="translate(301.220703 0)"/>
     <use xlink:href="#DejaVuSans-74" transform="translate(364.599609 0)"/>
     <use xlink:href="#DejaVuSans-20" transform="translate(403.808594 0)"/>
     <use xlink:href="#DejaVuSans-31" transform="translate(435.595703 0)"/>
     <use xlink:href="#DejaVuSans-2e" transform="translate(499.21875 0)"/>
     <use xlink:href="#DejaVuSans-33" transform="translate(531.005859 0)"/>
     <use xlink:href="#DejaVuSans-38" transform="translate(594.628906 0)"/>
     <use xlink:href="#DejaVuSans-2e" transform="translate(658.251953 0)"/>
     <use xlink:href="#DejaVuSans-30" transform="translate(690.039062 0)"/>
    </g>
   </g>
   <g id="legend_1">
    <g id="text_29">
     <!-- File size -->
     <g style="fill: #262626" transform="translate(542.327188 67.238438) scale(0.1 -0.1)">
      <defs>
       <path id="DejaVuSans-46" d="M 628 4666
L 3309 4666
L 3309 4134
L 1259 4134
L 1259 2759
L 3109 2759
L 3109 2228
L 1259 2228
L 1259 0
L 628 0
L 628 4666
z
" transform="scale(0.015625)"/>
       <path id="DejaVuSans-7a" d="M 353 3500
L 3084 3500
L 3084 2975
L 922 459
L 3084 459
L 3084 0
L 275 0
L 275 525
L 2438 3041
L 353 3041
L 353 3500
z
" transform="scale(0.015625)"/>
      </defs>
      <use xlink:href="#DejaVuSans-46"/>
      <use xlink:href="#DejaVuSans-69" transform="translate(50.269531 0)"/>
      <use xlink:href="#DejaVuSans-6c" transform="translate(78.052734 0)"/>
      <use xlink:href="#DejaVuSans-65" transform="translate(105.835938 0)"/>
      <use xlink:href="#DejaVuSans-20" transform="translate(167.359375 0)"/>
      <use xlink:href="#DejaVuSans-73" transform="translate(199.146484 0)"/>
      <use xlink:href="#DejaVuSans-69" transform="translate(251.246094 0)"/>
      <use xlink:href="#DejaVuSans-7a" transform="translate(279.029297 0)"/>
      <use xlink:href="#DejaVuSans-65" transform="translate(331.519531 0)"/>
     </g>
    </g>
    <g id="line2d_67">
     <path d="M 535.11 78.416563
L 545.11 78.416563
L 555.11 78.416563
" style="fill: none; stroke: #a6cee4; stroke-width: 2; stroke-linecap: round"/>
     <g>
      <use xlink:href="#m51718c9be3" x="545.11" y="78.416563" style="fill: #a6cee4; stroke: #a6cee4"/>
     </g>
    </g>
    <g id="text_30">
     <!-- 1 KiB -->
     <g style="fill: #262626" transform="translate(563.11 81.916563) scale(0.1 -0.1)">
      <defs>
       <path id="DejaVuSans-4b" d="M 628 4666
L 1259 4666
L 1259 2694
L 3353 4666
L 4166 4666
L 1850 2491
L 4331 0
L 3500 0
L 1259 2247
L 1259 0
L 628 0
L 628 4666
z
" transform="scale(0.015625)"/>
       <path id="DejaVuSans-42" d="M 1259 2228
L 1259 519
L 2272 519
Q 2781 519 3026 730
Q 3272 941 3272 1375
Q 3272 1813 3026 2020
Q 2781 2228 2272 2228
L 1259 2228
z
M 1259 4147
L 1259 2741
L 2194 2741
Q 2656 2741 2882 2914
Q 3109 3088 3109 3444
Q 3109 3797 2882 3972
Q 2656 4147 2194 4147
L 1259 4147
z
M 628 4666
L 2241 4666
Q 2963 4666 3353 4366
Q 3744 4066 3744 3513
Q 3744 3084 3544 2831
Q 3344 2578 2956 2516
Q 3422 2416 3680 2098
Q 3938 1781 3938 1306
Q 3938 681 3513 340
Q 3088 0 2303 0
L 628 0
L 628 4666
z
" transform="scale(0.015625)"/>
      </defs>
      <use xlink:href="#DejaVuSans-31"/>
      <use xlink:href="#DejaVuSans-20" transform="translate(63.623047 0)"/>
      <use xlink:href="#DejaVuSans-4b" transform="translate(95.410156 0)"/>
      <use xlink:href="#DejaVuSans-69" transform="translate(160.986328 0)"/>
      <use xlink:href="#DejaVuSans-42" transform="translate(188.769531 0)"/>
     </g>
    </g>
    <g id="line2d_68">
     <path d="M 535.11 93.094688
L 545.11 93.094688
L 555.11 93.094688
" style="fill: none; stroke: #6aaed6; stroke-width: 2; stroke-linecap: round"/>
     <g>
      <use xlink:href="#m24788b9bb6" x="545.11" y="93.094688" style="fill: #6aaed6; stroke: #6aaed6"/>
     </g>
    </g>
    <g id="text_31">
     <!-- 3 KiB -->
     <g style="fill: #262626" transform="translate(563.11 96.594688) scale(0.1 -0.1)">
      <use xlink:href="#DejaVuSans-33"/>
      <use xlink:href="#DejaVuSans-20" transform="translate(63.623047 0)"/>
      <use xlink:href="#DejaVuSans-4b" transform="translate(95.410156 0)"/>
      <use xlink:href="#DejaVuSans-69" transform="translate(160.986328 0)"/>
      <use xlink:href="#DejaVuSans-42" transform="translate(188.769531 0)"/>
     </g>
    </g>
    <g id="line2d_69">
     <path d="M 535.11 107.772813
L 545.11 107.772813
L 555.11 107.772813
" style="fill: none; stroke: #3b8bc2; stroke-width: 2; stroke-linecap: round"/>
     <g>
      <use xlink:href="#m51807d90b5" x="545.11" y="107.772813" style="fill: #3b8bc2; stroke: #3b8bc2"/>
     </g>
    </g>
    <g id="text_32">
     <!-- 5 KiB -->
     <g style="fill: #262626" transform="translate(563.11 111.272813) scale(0.1 -0.1)">
      <use xlink:href="#DejaVuSans-35"/>
      <use xlink:href="#DejaVuSans-20" transform="translate(63.623047 0)"/>
      <use xlink:href="#DejaVuSans-4b" transform="translate(95.410156 0)"/>
      <use xlink:href="#DejaVuSans-69" transform="translate(160.986328 0)"/>
      <use xlink:href="#DejaVuSans-42" transform="translate(188.769531 0)"/>
     </g>
    </g>
    <g id="line2d_70">
     <path d="M 535.11 122.450938
L 545.11 122.450938
L 555.11 122.450938
" style="fill: none; stroke: #1764ab; stroke-width: 2; stroke-linecap: round"/>
     <g>
      <use xlink:href="#m92eb8d5dcd" x="545.11" y="122.450938" style="fill: #1764ab; stroke: #1764ab"/>
     </g>
    </g>
    <g id="text_33">
     <!-- 7 KiB -->
     <g style="fill: #262626" transform="translate(563.11 125.950938) scale(0.1 -0.1)">
      <use xlink:href="#DejaVuSans-37"/>
      <use xlink:href="#DejaVuSans-20" transform="translate(63.623047 0)"/>
      <use xlink:href="#DejaVuSans-4b" transform="translate(95.410156 0)"/>
      <use xlink:href="#DejaVuSans-69" transform="translate(160.986328 0)"/>
      <use xlink:href="#DejaVuSans-42" transform="translate(188.769531 0)"/>
     </g>
    </g>
    <g id="line2d_71">
     <path d="M 535.11 137.129063
L 545.11 137.129063
L 555.11 137.129063
" style="fill: none; stroke: #083c7d; stroke-width: 2; stroke-linecap: round"/>
     <g>
      <use xlink:href="#m809cc5d11e" x="545.11" y="137.129063" style="fill: #083c7d; stroke: #083c7d"/>
     </g>
    </g>
    <g id="text_34">
     <!-- 9 KiB -->
     <g style="fill: #262626" transform="translate(563.11 140.629063) scale(0.1 -0.1)">
      <use xlink:href="#DejaVuSans-39"/>
      <use xlink:href="#DejaVuSans-20" transform="translate(63.623047 0)"/>
      <use xlink:href="#DejaVuSans-4b" transform="translate(95.410156 0)"/>
      <use xlink:href="#DejaVuSans-69" transform="translate(160.986328 0)"/>
      <use xlink:href="#DejaVuSans-42" transform="translate(188.769531 0)"/>
     </g>
    </g>
   </g>
  </g>
  <g id="text_35">
   <!-- ryl vs yamllint (hyperfine, 5 runs per point) -->
   <g style="fill: #262626" transform="translate(363.81125 17.797969) scale(0.13 -0.13)">
    <defs>
     <path id="DejaVuSans-76" d="M 191 3500
L 800 3500
L 1894 563
L 2988 3500
L 3597 3500
L 2284 0
L 1503 0
L 191 3500
z
" transform="scale(0.015625)"/>
     <path id="DejaVuSans-68" d="M 3513 2113
L 3513 0
L 2938 0
L 2938 2094
Q 2938 2591 2744 2837
Q 2550 3084 2163 3084
Q 1697 3084 1428 2787
Q 1159 2491 1159 1978
L 1159 0
L 581 0
L 581 4863
L 1159 4863
L 1159 2956
Q 1366 3272 1645 3428
Q 1925 3584 2291 3584
Q 2894 3584 3203 3211
Q 3513 2838 3513 2113
z
" transform="scale(0.015625)"/>
     <path id="DejaVuSans-70" d="M 1159 525
L 1159 -1331
L 581 -1331
L 581 3500
L 1159 3500
L 1159 2969
Q 1341 3281 1617 3432
Q 1894 3584 2278 3584
Q 2916 3584 3314 3078
Q 3713 2572 3713 1747
Q 3713 922 3314 415
Q 2916 -91 2278 -91
Q 1894 -91 1617 61
Q 1341 213 1159 525
z
M 3116 1747
Q 3116 2381 2855 2742
Q 2594 3103 2138 3103
Q 1681 3103 1420 2742
Q 1159 2381 1159 1747
Q 1159 1113 1420 752
Q 1681 391 2138 391
Q 2594 391 2855 752
Q 3116 1113 3116 1747
z
" transform="scale(0.015625)"/>
     <path id="DejaVuSans-2c" d="M 750 794
L 1409 794
L 1409 256
L 897 -744
L 494 -744
L 750 256
L 750 794
z
" transform="scale(0.015625)"/>
    </defs>
    <use xlink:href="#DejaVuSans-72"/>
    <use xlink:href="#DejaVuSans-79" transform="translate(41.113281 0)"/>
    <use xlink:href="#DejaVuSans-6c" transform="translate(100.292969 0)"/>
    <use xlink:href="#DejaVuSans-20" transform="translate(128.076172 0)"/>
    <use xlink:href="#DejaVuSans-76" transform="translate(159.863281 0)"/>
    <use xlink:href="#DejaVuSans-73" transform="translate(219.042969 0)"/>
    <use xlink:href="#DejaVuSans-20" transform="translate(271.142578 0)"/>
    <use xlink:href="#DejaVuSans-79" transform="translate(302.929688 0)"/>
    <use xlink:href="#DejaVuSans-61" transform="translate(362.109375 0)"/>
    <use xlink:href="#DejaVuSans-6d" transform="translate(423.388672 0)"/>
    <use xlink:href="#DejaVuSans-6c" transform="translate(520.800781 0)"/>
    <use xlink:href="#DejaVuSans-6c" transform="translate(548.583984 0)"/>
    <use xlink:href="#DejaVuSans-69" transform="translate(576.367188 0)"/>
    <use xlink:href="#DejaVuSans-6e" transform="translate(604.150391 0)"/>
    <use xlink:href="#DejaVuSans-74" transform="translate(667.529297 0)"/>
    <use xlink:href="#DejaVuSans-20" transform="translate(706.738281 0)"/>
    <use xlink:href="#DejaVuSans-28" transform="translate(738.525391 0)"/>
    <use xlink:href="#DejaVuSans-68" transform="translate(777.539062 0)"/>
    <use xlink:href="#DejaVuSans-79" transform="translate(840.917969 0)"/>
    <use xlink:href="#DejaVuSans-70" transform="translate(900.097656 0)"/>
    <use xlink:href="#DejaVuSans-65" transform="translate(963.574219 0)"/>
    <use xlink:href="#DejaVuSans-72" transform="translate(1025.097656 0)"/>
    <use xlink:href="#DejaVuSans-66" transform="translate(1066.210938 0)"/>
    <use xlink:href="#DejaVuSans-69" transform="translate(1101.416016 0)"/>
    <use xlink:href="#DejaVuSans-6e" transform="translate(1129.199219 0)"/>
    <use xlink:href="#DejaVuSans-65" transform="translate(1192.578125 0)"/>
    <use xlink:href="#DejaVuSans-2c" transform="translate(1254.101562 0)"/>
    <use xlink:href="#DejaVuSans-20" transform="translate(1285.888672 0)"/>
    <use xlink:href="#DejaVuSans-35" transform="translate(1317.675781 0)"/>
    <use xlink:href="#DejaVuSans-20" transform="translate(1381.298828 0)"/>
    <use xlink:href="#DejaVuSans-72" transform="translate(1413.085938 0)"/>
    <use xlink:href="#DejaVuSans-75" transform="translate(1454.199219 0)"/>
    <use xlink:href="#DejaVuSans-6e" transform="translate(1517.578125 0)"/>
    <use xlink:href="#DejaVuSans-73" transform="translate(1580.957031 0)"/>
    <use xlink:href="#DejaVuSans-20" transform="translate(1633.056641 0)"/>
    <use xlink:href="#DejaVuSans-70" transform="translate(1664.84375 0)"/>
    <use xlink:href="#DejaVuSans-65" transform="translate(1728.320312 0)"/>
    <use xlink:href="#DejaVuSans-72" transform="translate(1789.84375 0)"/>
    <use xlink:href="#DejaVuSans-20" transform="translate(1830.957031 0)"/>
    <use xlink:href="#DejaVuSans-70" transform="translate(1862.744141 0)"/>
    <use xlink:href="#DejaVuSans-6f" transform="translate(1926.220703 0)"/>
    <use xlink:href="#DejaVuSans-69" transform="translate(1987.402344 0)"/>
    <use xlink:href="#DejaVuSans-6e" transform="translate(2015.185547 0)"/>
    <use xlink:href="#DejaVuSans-74" transform="translate(2078.564453 0)"/>
    <use xlink:href="#DejaVuSans-29" transform="translate(2117.773438 0)"/>
   </g>
  </g>
 </g>
 <defs>
  <clipPath id="p277b402921">
   <rect x="44.22" y="50.64" width="471.09" height="306.9"/>
  </clipPath>
  <clipPath id="p41a759a97d">
   <rect x="526.11" y="50.64" width="471.09" height="306.9"/>
  </clipPath>
 </defs>
</svg>
